<svg width="503" height="221" viewBox="0 0 503 221" fill="none" xmlns="http://www.w3.org/2000/svg">
<path d="M6.21527 177.325C6.21527 171.738 6.21527 170.723 2.66037 170.215H1.13684C0.628998 170.215 1.13684 169.199 1.13684 168.691H14.8486C15.3564 168.691 15.3564 169.707 14.8486 170.215H13.8329C10.7859 170.723 10.278 171.231 10.278 177.325V183.927C10.278 184.942 10.278 185.958 10.7859 185.958C11.2937 185.958 11.8015 185.45 12.3094 185.45C13.3251 184.942 14.3408 183.419 15.3564 182.911L21.4506 176.817C22.4662 175.801 25.0055 172.754 25.5133 172.246C26.0211 171.738 26.0211 171.738 26.0211 171.231C26.0211 171.231 26.0211 170.723 25.0055 170.723L23.4819 170.215C23.9898 169.707 23.9898 169.199 24.4976 168.691H36.178C36.6858 169.199 36.6858 169.707 36.178 170.215C34.6545 170.215 32.6231 170.723 31.0996 171.738C29.576 172.754 26.529 175.293 23.4819 178.34L18.4035 182.911L16.88 184.435C16.88 184.942 17.3878 185.45 17.8957 185.958C22.9741 192.052 27.5447 197.131 31.6074 201.701C33.1309 203.225 34.1466 203.733 36.178 203.733H37.7015C38.2094 204.24 38.2094 204.748 37.7015 205.256H25.0055C24.4976 205.256 24.4976 204.24 25.0055 203.733H26.529C27.5447 203.733 28.0525 203.225 28.0525 203.225C28.0525 202.717 27.5447 202.209 27.0368 202.209C26.0211 200.685 24.4976 199.162 22.4662 197.131L17.8957 192.052C14.8486 188.497 13.8329 187.482 12.3094 187.482C11.2937 187.482 11.2937 187.989 11.2937 190.021V197.131C11.2937 202.717 11.2937 203.733 14.3408 204.24H15.8643C16.3721 204.24 15.8643 205.256 15.8643 205.764H2.66037C2.15253 205.764 2.15253 204.748 2.66037 204.24H3.67605C6.72311 203.733 6.72311 203.225 6.72311 197.131V177.325" fill="#14263D"/>
<path d="M58.5227 189.512C58.5227 187.481 58.5227 186.973 56.9991 185.957L56.4913 185.449V184.434C58.0148 183.926 61.0619 182.402 62.0776 181.895C62.0776 181.895 62.5854 181.895 62.5854 182.402V184.942C62.5854 185.449 62.5854 185.449 63.0933 185.449C65.6325 183.926 68.1717 182.402 70.7109 182.402C75.2815 182.402 77.3128 185.449 77.3128 189.004V198.653C77.3128 202.716 77.3128 203.224 79.3442 203.224H80.3599C80.8677 203.732 80.8677 204.24 80.3599 204.747H70.2031C69.6952 204.747 69.6952 203.732 70.2031 203.224H71.2187C73.2501 202.716 73.2501 202.208 73.2501 198.653V190.528C73.2501 187.481 71.7266 184.942 68.1717 184.942C66.1403 184.942 64.1089 185.957 63.6011 186.973C63.0933 187.989 62.5854 188.496 62.5854 190.528V199.161C62.5854 203.224 62.5854 203.732 64.6168 203.732H65.6325C66.1403 204.24 66.1403 204.747 65.6325 205.255H55.4756C54.9678 205.255 54.9678 204.24 55.4756 203.732H56.4913C58.5227 203.224 58.5227 202.716 58.5227 199.161V189.512" fill="#14263D"/>
<path d="M84.9309 189.512C84.9309 187.481 84.9309 186.973 83.4073 185.957L82.8995 185.449V184.434C83.9152 183.926 87.4701 182.402 88.4858 181.895C88.4858 181.895 88.9936 181.895 88.9936 182.402V184.942C88.9936 185.449 88.9936 185.449 89.5015 185.449C92.0407 183.926 94.5799 182.402 97.1191 182.402C101.69 182.402 103.721 185.449 103.721 189.004V198.653C103.721 202.716 103.721 203.224 105.752 203.224H106.768C107.276 203.732 107.276 204.24 106.768 204.747H96.6112C96.1034 204.747 96.1034 203.732 96.6112 203.224H97.6269C99.6583 202.716 99.6583 202.208 99.6583 198.653V190.528C99.6583 187.481 98.1348 184.942 94.5799 184.942C92.5485 184.942 90.5171 185.957 90.0093 186.973C89.5015 187.989 88.9936 188.496 88.9936 190.528V199.161C88.9936 203.224 88.9936 203.732 91.025 203.732H92.0407C92.5485 204.24 92.5485 204.747 92.0407 205.255H81.8838C81.376 205.255 81.376 204.24 81.8838 203.732H82.8995C84.9309 203.224 84.9309 202.716 84.9309 199.161V189.512" fill="#14263D"/>
<path d="M149.935 197.637C149.935 202.207 149.935 204.239 151.458 204.239C151.966 204.239 152.982 203.731 153.998 203.731C154.505 203.731 154.505 205.254 153.998 205.254C151.458 205.762 148.411 206.27 146.888 206.778C146.38 206.778 146.38 206.778 146.38 206.27V203.731C143.841 205.254 142.317 206.27 139.27 206.27C133.176 206.27 129.113 201.699 129.113 195.605C129.113 187.988 135.207 182.909 142.317 182.909C144.349 182.909 145.364 183.417 145.872 183.417C146.38 183.417 146.38 182.909 146.38 182.401V174.276C146.38 171.229 146.38 170.721 144.856 169.705L144.349 169.197C143.841 169.197 143.841 168.182 144.349 168.182C145.872 167.674 148.411 167.166 150.443 165.643C150.443 165.643 150.951 165.643 150.951 166.15V197.637M145.872 189.003C145.872 187.988 145.872 187.48 145.364 186.972C144.349 185.956 142.825 184.433 140.794 184.433C135.715 184.433 133.176 189.003 133.176 193.574C133.176 198.652 136.223 203.223 141.302 203.223C142.825 203.223 144.856 202.715 145.364 201.699C145.872 201.699 145.872 200.684 145.872 200.176V189.003V189.003Z" fill="#14263D"/>
<path d="M152.982 216.938C152.982 215.414 153.997 214.906 155.013 214.906H156.029C157.044 214.906 157.552 214.398 158.06 213.89C159.583 211.351 160.599 209.32 161.107 207.796C161.107 207.289 161.615 206.273 161.615 205.257C161.615 204.241 161.615 203.734 160.599 201.702L156.536 190.022C155.521 187.483 155.013 185.959 153.489 185.959L151.966 184.943C151.458 184.436 151.458 183.928 151.966 183.42H161.615C162.123 183.42 162.123 184.436 161.615 184.943H161.107C160.091 184.943 160.091 185.451 160.091 185.451C160.091 185.959 161.107 189.514 161.615 190.53L163.138 195.608C163.646 196.624 164.662 199.671 164.662 199.671L166.693 195.608L168.725 191.038C169.74 187.991 170.756 185.959 170.756 185.451C170.756 184.943 170.248 184.436 169.232 184.436L167.709 184.943C167.201 184.436 167.201 183.928 167.709 183.42H176.85C177.358 183.42 177.358 184.436 176.85 184.943H175.834C173.803 185.451 172.787 186.975 171.264 191.038L168.217 197.132C166.185 200.687 161.615 210.336 159.076 216.43C158.06 218.461 157.044 218.969 155.521 218.969C153.997 218.969 152.982 218.461 152.982 216.938" fill="#14263D"/>
<path d="M191.579 177.325C191.579 171.738 191.579 170.723 188.024 170.215H186.5C185.992 170.215 186.5 169.199 186.5 168.691H200.212C200.72 168.691 200.72 169.707 200.212 170.215H199.196C196.149 170.723 195.641 171.231 195.641 177.325V183.927C195.641 184.942 195.641 185.958 196.149 185.958C196.657 185.958 197.165 185.45 197.673 185.45C198.688 184.942 199.704 183.419 200.72 182.911L206.814 176.817C207.83 175.801 210.369 172.754 210.877 172.246C211.384 171.738 211.384 171.738 211.384 171.231C211.384 171.231 211.384 170.723 210.369 170.723L208.845 170.215C208.337 169.707 208.337 169.199 208.845 168.691H220.526C221.033 169.199 221.033 169.707 220.526 170.215C219.002 170.215 216.971 170.723 215.447 171.738C213.924 172.754 210.877 175.293 207.83 178.34L202.751 182.911C201.735 183.927 201.735 184.435 201.735 184.435C201.735 184.942 202.243 185.45 202.751 185.958C207.83 192.052 212.4 197.131 216.463 201.701C217.986 203.225 219.002 203.733 221.033 203.733H222.557C223.065 204.24 223.065 204.748 222.557 205.256H209.861C209.353 205.256 209.353 204.24 209.861 203.733H210.877C211.892 203.733 212.4 203.225 212.4 203.225C212.4 202.717 211.892 202.209 211.384 202.209C210.369 200.685 208.845 199.162 206.814 197.131L202.243 192.052C199.196 188.497 198.181 187.482 196.657 187.482C195.641 187.482 195.641 187.989 195.641 190.021V197.131C195.641 202.717 195.641 203.733 198.688 204.24H200.212C200.72 204.24 200.212 205.256 200.212 205.764H187.008C186.5 205.764 186.5 204.748 187.008 204.24H188.024C191.071 203.733 191.071 203.225 191.071 197.131V177.325" fill="#14263D"/>
<path d="M225.604 189.512C225.604 187.481 225.604 186.973 224.08 185.957L223.572 185.449V184.434C225.096 183.926 227.635 182.402 229.159 181.895C229.666 181.895 229.666 181.895 229.666 182.402V185.957C231.698 184.434 233.729 182.402 235.761 182.402C237.284 182.402 238.3 183.418 238.3 184.434C238.3 186.465 236.776 186.973 235.761 186.973C235.253 186.973 234.745 186.973 234.745 186.465C233.729 185.957 233.221 185.449 232.206 185.449C231.19 185.449 230.682 185.957 230.174 186.465C229.666 187.481 229.666 189.004 229.666 190.528V198.146C229.666 202.208 229.666 202.716 231.698 202.716H233.729C234.237 203.224 234.237 203.732 233.729 204.24H222.557C222.049 204.24 222.049 203.224 222.557 202.716H223.572C225.604 202.208 225.604 201.7 225.604 198.146V189.512" fill="#14263D"/>
<path d="M243.886 189.515C243.886 187.484 243.886 186.976 242.362 185.96L241.855 185.452V184.436C243.378 183.929 246.425 182.405 247.441 181.897C247.949 181.897 247.949 181.897 247.949 182.405V199.164C247.949 203.227 247.949 203.734 249.98 203.734H250.996C251.504 204.242 251.504 204.75 250.996 205.258H240.839C240.331 205.258 240.331 204.242 240.839 203.734H241.855C243.886 203.227 243.886 202.719 243.886 199.164V189.515M248.457 171.74C248.457 173.772 246.933 174.787 245.409 174.787C243.886 174.787 242.362 173.772 242.362 172.248C242.362 170.217 243.886 169.201 245.409 169.201C247.441 168.693 248.457 170.217 248.457 171.74Z" fill="#14263D"/>
<path d="M296.194 184.943C296.702 185.451 296.702 186.975 295.686 186.975H291.623V190.022C291.623 194.085 289.592 198.655 282.482 198.655H279.943C279.943 199.163 277.911 200.179 277.911 201.702C277.911 202.718 279.435 204.241 281.974 204.241H288.576C291.623 204.241 296.194 204.749 296.194 210.336C296.194 216.43 289.592 221 282.482 221C275.88 221 273.341 217.445 273.341 214.398C273.341 213.383 273.341 212.875 273.849 212.367L277.404 208.812C277.911 208.304 278.419 207.796 277.911 207.289C275.88 206.781 273.849 204.749 273.849 202.718C273.849 202.21 273.849 202.21 274.864 201.702C275.88 201.194 276.896 200.179 277.911 199.163C278.419 198.655 278.419 198.147 278.419 198.147C276.388 197.132 274.357 195.1 274.357 191.545C274.357 186.975 278.419 183.42 283.498 183.42C285.529 183.42 287.56 183.928 288.576 184.436C290.1 185.451 290.607 185.451 292.131 185.451L296.194 184.943M285.021 207.289C283.498 207.289 280.958 207.289 280.451 207.796C278.927 208.812 277.911 210.336 277.911 212.367C277.911 215.414 280.451 217.953 285.529 217.953C290.607 217.953 293.655 215.414 293.655 211.859C293.655 208.304 291.115 207.289 287.56 207.289H285.021ZM288.068 191.545C288.068 187.991 286.545 184.436 282.99 184.436C280.451 184.436 278.419 186.975 278.419 190.53C278.419 194.592 280.958 197.132 283.498 197.132C286.545 197.132 288.068 194.592 288.068 191.545Z" fill="#14263D"/>
<path d="M319.556 189.512C319.556 187.481 319.556 186.973 318.032 185.957L317.525 185.449V184.434C318.54 183.926 321.587 182.402 323.111 181.895C323.619 181.895 323.619 181.895 323.619 182.402V185.957C325.65 184.434 327.681 182.402 329.713 182.402C331.236 182.402 332.252 183.418 332.252 184.434C332.252 186.465 330.728 186.973 329.713 186.973C329.205 186.973 328.697 186.973 328.697 186.465C327.681 185.957 327.174 185.449 326.158 185.449C325.142 185.449 324.634 185.957 324.126 186.465C324.126 188.496 323.619 190.02 323.619 191.544V199.161C323.619 203.224 323.619 203.732 325.65 203.732H327.681C328.189 204.24 328.189 204.747 327.681 205.255H316.509C316.001 205.255 316.001 204.24 316.509 203.732H317.525C319.556 203.224 319.556 202.716 319.556 199.161V189.512" fill="#14263D"/>
<path d="M347.995 177.325C347.995 171.231 347.995 170.723 344.441 170.215H342.917C342.409 170.215 342.917 169.199 342.917 168.691H356.629C357.137 168.691 357.137 169.707 356.629 170.215H355.105C352.058 170.723 351.55 171.231 351.55 177.325V197.131C351.55 203.225 351.55 203.733 355.105 204.24H356.629C357.137 204.24 356.629 205.256 356.629 205.764H342.917C342.409 205.764 342.409 204.748 342.917 204.24H344.441C347.488 203.733 347.995 203.225 347.995 197.131V177.325Z" fill="#14263D"/>
<path d="M362.722 189.512C362.722 187.481 362.722 186.973 361.198 185.957L360.691 185.449V184.434C362.214 183.926 365.261 182.402 366.277 181.895C366.277 181.895 366.785 181.895 366.785 182.402V184.942C366.785 185.449 366.785 185.449 367.292 185.449C369.832 183.926 372.371 182.402 374.91 182.402C379.481 182.402 381.512 185.449 381.512 189.004V198.653C381.512 202.716 381.512 203.224 383.543 203.224H384.559C385.067 203.732 385.067 204.24 384.559 204.747H374.402C373.894 204.747 373.894 203.732 374.402 203.224H375.418C377.449 202.716 377.449 202.208 377.449 198.653V190.528C377.449 187.481 375.926 184.942 372.371 184.942C370.34 184.942 368.308 185.957 367.8 186.973C367.292 187.989 366.785 188.496 366.785 190.528V199.161C366.785 203.224 366.785 203.732 368.816 203.732H369.832C370.34 204.24 370.34 204.747 369.832 205.255H359.675C359.167 205.255 359.167 204.24 359.675 203.732H360.691C362.722 203.224 362.722 202.716 362.722 199.161V189.512" fill="#14263D"/>
<path d="M398.779 183.929C399.286 184.945 399.794 186.976 399.794 188.5C399.794 189.008 398.779 189.008 398.271 188.5C397.255 185.961 395.732 184.437 393.192 184.437C391.161 184.437 389.637 185.961 389.637 187.992C389.637 190.023 392.177 191.547 393.7 192.562C396.747 194.086 399.286 196.117 399.286 200.18C399.286 204.243 395.224 206.274 391.161 206.274C388.622 206.274 386.59 205.766 385.067 204.751C384.559 203.735 384.051 201.196 384.559 199.164C385.067 198.657 385.575 198.657 386.083 199.164C387.098 202.211 388.622 204.751 392.177 204.751C394.208 204.751 395.732 203.735 395.732 201.196C395.732 198.657 393.7 197.133 391.669 196.117C388.622 194.086 386.083 192.562 386.083 189.515C386.083 185.453 389.637 183.421 393.7 183.421C396.239 182.913 398.271 183.421 398.779 183.929" fill="#14263D"/>
<path d="M409.95 185.961C408.934 185.961 408.934 185.961 408.934 187.485V197.642C408.934 200.689 409.442 203.736 412.997 203.736C413.505 203.736 414.012 203.736 414.52 203.228C415.028 203.228 415.536 202.212 416.044 202.212C416.552 202.212 416.552 202.72 416.552 203.228C415.536 204.244 413.505 205.767 410.965 205.767C406.395 205.767 405.379 203.228 405.379 199.673V186.977C405.379 185.453 405.379 185.453 404.363 185.453H402.84C402.332 185.453 402.332 184.438 402.84 184.438C404.363 183.93 405.887 183.422 406.395 182.914C406.903 182.406 407.918 180.883 408.934 179.867C409.442 179.867 409.95 179.867 409.95 180.375V182.914C409.95 183.93 409.95 183.93 410.965 183.93H417.059C417.567 184.438 417.567 185.961 417.059 186.469H409.95" fill="#14263D"/>
<path d="M420.617 189.515C420.617 187.484 420.617 186.976 419.094 185.96L418.586 185.452V184.436C420.11 183.929 423.157 182.405 424.172 181.897C424.68 181.897 424.68 181.897 424.68 182.405V199.164C424.68 203.227 424.68 203.734 426.712 203.734H427.727C428.235 204.242 428.235 204.75 427.727 205.258H417.57C417.062 205.258 417.062 204.242 417.57 203.734H418.586C420.617 203.227 420.617 202.719 420.617 199.164V189.515M425.188 171.74C425.188 173.772 423.664 174.787 422.141 174.787C420.617 174.787 419.094 173.772 419.094 172.248C419.094 170.217 420.617 169.201 422.141 169.201C424.172 168.693 425.188 170.217 425.188 171.74Z" fill="#14263D"/>
<path d="M436.867 185.961C435.851 185.961 435.851 185.961 435.851 187.485V197.642C435.851 200.689 436.359 203.736 439.914 203.736C440.422 203.736 440.929 203.736 441.437 203.228C441.945 203.228 442.453 202.212 442.961 202.212C443.469 202.212 443.469 202.72 443.469 203.228C442.453 204.244 440.422 205.767 437.882 205.767C433.312 205.767 432.296 203.228 432.296 199.673V186.977C432.296 185.453 432.296 185.453 431.28 185.453H429.757C429.249 185.453 429.249 184.438 429.757 184.438C431.28 183.93 432.804 183.422 433.312 182.914C433.82 182.406 434.835 180.883 435.851 179.867C436.359 179.867 436.867 179.867 436.867 180.375V182.914C436.867 183.93 436.867 183.93 437.882 183.93H443.976C444.484 184.438 444.484 185.961 443.976 186.469H436.867" fill="#14263D"/>
<path d="M451.086 197.132C451.086 201.194 452.102 203.734 456.165 203.734C457.688 203.734 459.212 203.226 460.735 202.21C461.243 201.702 461.751 200.687 461.751 199.163V190.022C461.751 186.467 461.243 186.467 459.72 185.451L459.212 184.943C458.704 184.943 458.704 183.928 459.212 183.928C461.243 183.928 464.29 183.42 465.814 182.912C466.322 182.912 466.322 182.912 466.322 183.42V197.132C466.322 201.702 466.322 203.226 467.845 203.226C468.353 203.226 469.369 203.226 469.877 202.718C470.384 203.226 470.384 204.242 469.877 204.242C467.845 204.749 464.29 205.257 462.767 206.273C462.259 206.273 462.259 206.273 462.259 205.765V203.734C462.259 203.226 462.259 202.718 461.751 202.718C460.227 203.734 457.18 205.765 454.133 205.765C449.055 205.765 447.531 203.226 447.531 198.655V190.022C447.531 186.467 447.531 185.959 446.008 185.451L444.992 184.943C444.484 184.436 444.484 183.928 444.992 183.928C447.531 183.928 449.563 183.42 451.086 182.912C451.594 182.912 451.594 182.912 451.594 183.42V187.991L451.086 197.132" fill="#14263D"/>
<path d="M478.002 185.961C476.987 185.961 476.987 185.961 476.987 187.485V197.642C476.987 200.689 477.495 203.736 481.049 203.736C481.557 203.736 482.065 203.736 482.573 203.228C483.081 203.228 483.589 202.212 484.097 202.212C484.604 202.212 484.604 202.72 484.604 203.228C483.589 204.244 481.557 205.767 479.018 205.767C474.447 205.767 473.432 203.228 473.432 199.673V186.977C473.432 185.453 473.432 185.453 472.416 185.453H470.893C470.385 185.453 470.385 184.438 470.893 184.438C472.416 183.93 473.94 183.422 474.447 182.914C474.955 182.406 475.971 180.883 476.987 179.867C477.495 179.867 478.002 179.867 478.002 180.375V182.914C478.002 183.93 478.002 183.93 479.018 183.93H485.112C485.62 184.438 485.62 185.961 485.112 186.469H478.002" fill="#14263D"/>
<path d="M40.7503 191.545C39.2268 191.545 39.2268 191.545 39.2268 193.069C39.2268 198.655 42.2738 203.226 47.8601 203.226C49.3836 203.226 50.9072 202.718 52.4307 200.687C52.9385 200.687 53.4464 200.687 53.4464 201.194C51.9228 204.749 47.8601 206.273 45.3209 206.273C41.766 206.273 39.2268 204.749 37.7032 202.718C36.1797 200.687 35.6719 198.147 35.6719 195.608C35.6719 189.006 39.7346 182.912 46.3366 182.912C50.9072 182.912 53.9542 185.959 53.9542 189.514V191.038C53.9542 191.545 52.9385 191.545 50.9072 191.545H40.7503M43.7974 189.514C47.8601 189.514 48.8758 189.514 49.3836 189.006C49.3836 189.006 49.8915 188.498 49.8915 187.991C49.8915 186.467 48.8758 184.436 45.8287 184.436C42.7817 184.436 40.2425 187.483 40.2425 189.006C40.2425 189.006 40.2425 189.514 40.7503 189.514H43.7974V189.514Z" fill="#14263D"/>
<path d="M111.846 191.545C110.322 191.545 110.322 191.545 110.322 193.069C110.322 198.655 113.37 203.226 118.956 203.226C120.479 203.226 122.003 202.718 123.526 200.687C124.034 200.687 124.542 200.687 124.542 201.194C123.019 204.749 118.956 206.273 116.417 206.273C112.862 206.273 110.322 204.749 108.799 202.718C107.275 200.687 106.768 198.147 106.768 195.608C106.768 189.006 110.83 182.912 117.432 182.912C122.003 182.912 125.05 185.959 125.05 189.514V191.038C125.05 191.545 124.034 191.545 122.003 191.545H111.846M115.401 189.514C119.464 189.514 120.479 189.514 120.987 189.006C120.987 189.006 121.495 188.498 121.495 187.991C121.495 186.467 120.479 184.436 117.432 184.436C114.385 184.436 111.846 187.483 111.846 189.006C111.846 189.006 111.846 189.514 112.354 189.514H115.401V189.514Z" fill="#14263D"/>
<path d="M258.615 191.545C257.091 191.545 257.091 191.545 257.091 193.069C257.091 198.655 260.138 203.226 265.724 203.226C267.248 203.226 268.771 202.718 270.295 200.687C270.803 200.687 271.311 200.687 271.311 201.194C269.787 204.749 265.724 206.273 263.185 206.273C259.63 206.273 257.091 204.749 255.567 202.718C254.044 200.687 253.536 198.147 253.536 195.608C253.536 189.006 257.599 182.912 264.201 182.912C268.771 182.912 271.818 185.959 271.818 189.514V191.038C271.818 191.545 270.803 191.545 268.771 191.545H258.615M262.169 189.514C266.232 189.514 267.248 189.514 267.756 189.006C267.756 189.006 268.264 188.498 268.264 187.991C268.264 186.467 267.248 184.436 264.201 184.436C261.154 184.436 258.615 187.483 258.615 189.006C258.615 189.006 258.615 189.514 259.122 189.514H262.169V189.514Z" fill="#14263D"/>
<path d="M301.781 191.545C300.257 191.545 300.257 191.545 300.257 193.069C300.257 198.655 303.304 203.226 308.89 203.226C310.414 203.226 311.937 202.718 313.461 200.687C313.969 200.687 314.477 200.687 314.477 201.194C312.953 204.749 308.89 206.273 306.351 206.273C302.796 206.273 300.257 204.749 298.734 202.718C297.21 200.687 296.702 198.147 296.702 195.608C296.702 189.006 300.765 182.912 307.367 182.912C311.937 182.912 314.984 185.959 314.984 189.514V191.038C314.984 191.545 313.969 191.545 311.937 191.545H301.781M304.828 189.514C308.89 189.514 309.906 189.514 310.414 189.006C310.414 189.006 310.922 188.498 310.922 187.991C310.922 186.467 309.906 184.436 306.859 184.436C303.812 184.436 301.273 187.483 301.273 189.006C301.273 189.006 301.273 189.514 301.781 189.514H304.828V189.514Z" fill="#14263D"/>
<path d="M489.682 191.545C488.158 191.545 488.158 191.545 488.158 193.069C488.158 198.655 491.205 203.226 496.792 203.226C498.315 203.226 499.839 202.718 501.362 200.687C501.87 200.687 502.378 200.687 502.378 201.194C500.854 204.749 496.792 206.273 494.253 206.273C490.698 206.273 488.158 204.749 486.635 202.718C485.111 200.687 484.604 198.147 484.604 195.608C484.604 189.006 488.666 182.912 495.268 182.912C499.839 182.912 502.886 185.959 502.886 189.514V191.038C502.886 191.545 501.87 191.545 499.839 191.545H489.682M492.729 189.514C496.792 189.514 497.807 189.514 498.315 189.006C498.315 189.006 498.823 188.498 498.823 187.991C498.823 186.467 497.807 184.436 494.76 184.436C491.713 184.436 489.174 187.483 489.174 189.006C489.174 189.006 489.174 189.514 489.682 189.514H492.729V189.514Z" fill="#14263D"/>
<path d="M355.104 135.684C355.104 130.606 359.674 126.035 364.753 126.035C370.339 126.035 374.402 130.606 374.402 135.684C374.402 141.27 369.831 145.333 364.753 145.333C359.674 145.333 355.104 140.763 355.104 135.684ZM364.753 142.286C368.307 142.286 371.355 139.239 371.355 135.684C371.355 132.129 368.307 129.082 364.753 129.082C361.198 129.082 358.151 132.129 358.151 135.684C358.151 139.239 361.198 142.286 364.753 142.286Z" fill="#14263D"/>
<path d="M369.325 131.11C367.293 133.141 367.801 138.22 363.738 137.712C361.199 135.173 364.754 132.126 365.262 129.079L366.278 126.032C366.785 126.032 367.293 125.524 366.785 124.508C364.246 123.492 360.183 126.032 358.66 122.985C356.121 122.477 355.105 124 354.089 125.524C349.519 136.696 338.854 144.314 326.666 143.806C310.415 143.806 297.719 130.094 297.719 114.351C297.719 104.702 302.289 96.5767 309.399 91.4983C311.43 82.3571 304.321 71.6924 314.985 66.1061C314.985 65.5983 314.478 65.5983 314.478 65.0904C319.556 63.5669 323.619 58.9963 327.174 55.9493C329.713 54.9336 332.76 56.4571 334.791 54.9336C336.315 57.9807 338.346 63.0591 342.917 63.0591C343.425 62.5512 343.932 63.0591 343.932 62.5512C347.995 67.6297 344.44 73.7238 345.456 79.31C344.948 80.3257 343.932 81.3414 344.44 82.8649C353.581 84.3885 364.246 81.3414 368.309 90.4826C367.801 97.5924 368.309 104.702 369.832 112.32C367.801 113.336 368.817 115.875 370.848 116.383C373.387 118.414 378.974 118.414 378.974 120.953C379.989 121.461 382.021 120.953 382.021 122.985V123.492C377.958 125.016 369.325 121.969 371.356 128.063L369.325 131.11M344.948 101.655C337.33 101.147 328.697 102.671 321.587 102.671C321.08 107.749 321.587 115.367 322.603 120.953C330.729 120.953 339.362 119.937 347.995 119.43C349.519 115.875 348.503 112.32 347.995 108.765C347.487 106.226 345.964 104.194 344.948 101.655V101.655ZM346.979 101.147C349.519 105.21 351.042 109.781 351.042 114.859C351.042 116.383 351.042 117.906 350.534 119.43L352.058 118.922C352.058 117.398 352.566 116.383 352.566 114.859C352.566 109.273 351.042 104.194 347.995 100.132L346.979 101.147V101.147ZM308.383 97.0845C303.813 101.655 301.274 107.749 301.274 114.859C301.274 129.079 312.446 140.759 326.666 140.759C337.838 140.759 347.487 134.157 351.042 124H350.027C346.472 133.141 337.33 139.743 327.174 139.235C313.462 139.235 302.797 128.063 303.305 114.351C303.305 108.257 305.844 102.671 309.907 98.1002L308.383 97.0845V97.0845ZM315.493 93.0218C317.017 92.514 318.032 91.4983 319.048 91.4983V90.4826C317.525 90.9904 316.001 91.4983 314.478 92.514L315.493 93.0218V93.0218ZM318.54 73.2159C318.032 70.6767 317.017 74.2316 315.493 74.2316C315.493 78.2944 312.954 83.8806 313.462 88.4512C314.985 88.4512 316.509 86.9277 318.54 86.9277C319.556 82.3571 318.54 77.2787 318.54 73.2159V73.2159ZM357.644 98.1002C357.136 97.5924 357.136 96.5767 356.121 96.5767C349.011 99.6238 357.136 105.718 356.628 109.273C356.121 105.21 357.136 101.655 357.644 98.1002ZM357.644 115.875C357.136 112.32 356.121 117.906 357.136 118.922C357.644 118.922 358.66 119.43 359.168 118.922C359.676 117.398 359.676 114.859 357.644 115.875V115.875ZM305.336 114.351C305.336 126.539 314.985 136.188 326.666 136.188C335.299 136.188 342.917 131.11 346.472 124C335.807 124.508 326.158 125.524 317.017 125.524C317.017 124 316.509 122.985 316.509 121.461C317.525 121.461 318.032 121.461 319.048 120.953C318.54 112.32 318.54 103.179 317.525 95.0532C315.493 95.0532 315.493 97.0845 314.478 98.1002C313.462 98.1002 312.446 98.6081 311.43 99.1159C307.876 103.179 305.336 108.257 305.336 114.351V114.351Z" fill="#14263D"/>
<path d="M327.173 111.307C325.142 111.307 323.618 112.83 323.618 114.862C323.618 116.893 325.142 118.416 327.173 118.416C329.204 118.416 330.728 116.893 330.728 114.862C330.22 112.83 328.697 111.307 327.173 111.307ZM326.665 116.385C325.65 116.385 325.142 115.877 325.142 114.862C325.142 113.846 325.65 113.338 326.665 113.338C327.681 113.338 328.189 113.846 328.189 114.862C328.189 115.369 327.681 116.385 326.665 116.385Z" fill="#14263D"/>
<path d="M353.073 44.7779C352.566 44.7779 352.566 45.7936 352.058 46.3014C351.55 46.8093 351.55 47.3171 351.55 47.3171C351.042 47.3171 351.042 47.825 351.042 47.825V48.8407C351.042 49.3485 351.55 49.8563 352.058 50.3642C352.058 50.872 352.566 51.3799 352.566 51.3799C352.566 51.8877 352.058 51.8877 352.058 51.8877V52.3956C352.058 52.3956 351.55 52.9034 351.55 53.4112H351.042C351.042 53.4112 350.534 53.9191 350.534 54.4269C351.042 54.4269 350.534 54.9348 350.534 54.9348L350.026 55.4426V56.4583C350.026 56.9661 349.519 57.9818 348.503 57.9818C347.487 57.9818 346.979 57.9818 346.471 57.474C345.964 57.474 345.964 56.9661 345.456 56.9661C344.948 56.9661 344.948 56.9661 344.948 57.9818C344.948 58.9975 345.456 59.5054 344.948 60.0132C344.44 60.0132 343.932 61.0289 342.917 60.0132C341.393 58.9975 340.885 58.9975 339.869 57.474C338.854 55.9505 337.838 54.9348 337.838 54.4269V52.9034L336.822 51.8877C336.315 51.3799 336.315 51.3799 336.315 50.3642C336.315 49.8563 335.807 48.3328 335.299 47.3171C334.791 46.3014 334.283 45.2858 334.283 44.2701C334.283 42.7465 334.283 42.2387 334.791 41.223C335.299 40.2073 335.807 38.6838 336.315 38.176C336.822 37.1603 337.33 36.1446 338.346 36.1446C339.362 35.6368 339.869 36.1446 340.377 35.6367C340.885 35.6367 340.885 35.1289 341.901 35.1289H345.964C346.979 35.1289 346.979 35.6367 347.487 35.6367C347.995 36.1446 348.503 36.1446 349.518 36.6524C350.534 36.6524 351.042 37.1603 352.058 38.176C352.566 38.6838 353.073 39.1916 353.073 39.6995C353.073 40.2073 353.581 40.2073 354.089 40.7152C354.597 41.223 355.105 41.223 355.105 42.2387C355.613 42.7465 355.613 42.7465 355.613 43.7622C355.613 44.7779 356.12 45.2858 355.613 45.7936C355.105 46.3014 355.613 46.8093 354.597 46.3014H353.581C353.073 45.2858 353.073 44.7779 353.073 44.7779" fill="#14263D"/>
<path d="M239.823 3.13687C239.823 3.13687 239.823 2.62903 239.823 3.13687C240.839 2.62903 241.346 2.62903 241.346 2.12118C241.854 2.12118 241.854 2.12118 242.362 1.61334H243.886C244.393 1.61334 244.393 1.1055 244.901 1.1055H245.917C245.917 1.1055 245.917 0.597656 246.933 0.597656C247.44 0.597656 247.948 1.1055 248.456 1.1055H249.98L250.488 1.61334H251.503C252.011 1.61334 252.011 2.12118 252.011 2.12118H252.519C253.027 2.62903 253.027 2.62903 254.042 3.13687C255.058 3.64471 255.566 4.15256 256.582 4.6604C257.597 5.16824 257.597 5.67608 258.105 6.18393C258.613 6.69177 259.121 7.19961 259.121 7.70746C259.121 8.2153 258.613 8.72314 258.105 9.23098V11.2624C258.105 11.7702 257.597 12.7859 257.597 13.8016C257.597 14.3094 257.089 14.8173 257.597 15.3251C257.597 16.3408 258.105 16.8486 258.613 17.3565C258.613 17.8643 258.613 17.8643 258.105 18.3722C257.597 18.88 257.597 19.3878 257.597 19.3878C257.597 19.8957 258.105 19.3878 258.105 19.8957C258.105 20.4035 257.597 20.4035 257.597 20.9114C257.089 21.4192 257.089 21.4192 257.597 21.4192C257.597 21.4192 258.105 21.4192 258.105 21.9271C258.105 22.4349 257.597 22.4349 257.597 22.4349V23.4506C257.597 23.9584 258.105 24.4663 257.597 25.482C257.089 25.9898 257.597 25.9898 256.582 25.9898C255.566 25.9898 255.566 26.4976 255.058 26.4976C254.55 26.4976 254.042 27.0055 254.042 27.0055V28.0212C254.042 28.0212 255.058 29.0369 255.058 29.5447V35.131C255.058 35.131 254.042 33.0996 252.519 32.5917C250.995 31.5761 250.488 31.0682 250.488 31.0682V30.5604C250.488 30.5604 249.98 29.5447 249.472 29.5447H246.933C246.425 29.5447 244.393 28.529 243.886 28.0212C242.362 26.4976 242.362 26.4976 242.362 25.482C242.362 24.4663 242.87 23.4506 241.854 22.4349C240.839 21.4192 238.299 18.88 237.284 17.3565C236.268 15.8329 235.252 14.3094 235.76 11.7702C235.76 9.23098 235.76 7.70746 236.268 6.69177C237.791 5.67608 238.807 4.15256 239.823 3.13687" fill="#14263D"/>
<path d="M293.148 68.6449C292.64 68.1371 292.64 68.1371 292.64 67.6292V66.1057C292.64 65.5978 291.117 65.09 290.101 64.5822C289.086 64.0743 288.07 63.5665 286.038 63.0586C284.007 62.5508 284.515 62.0429 284.515 62.0429C284.515 62.0429 283.499 60.0116 281.976 59.5037C280.452 58.9959 279.944 58.488 278.929 57.9802C277.913 57.4724 277.913 56.9645 276.39 55.9488C274.866 54.9331 274.358 53.9175 272.835 52.9018C271.311 51.8861 270.295 50.3626 269.28 48.3312C268.264 46.2998 266.74 44.2684 263.693 39.19C260.646 34.1116 259.631 33.0959 258.615 32.0802C257.599 31.0645 256.076 30.5567 256.076 30.5567V33.0959L254.552 32.0802V35.1273C254.044 35.1273 254.044 35.1273 254.044 35.6351C254.044 36.143 254.552 37.6665 255.06 40.2057C255.568 42.7449 255.06 46.2998 255.06 46.2998H252.521V42.7449C252.521 40.2057 251.505 38.1743 250.49 37.1587C249.982 36.143 249.474 36.143 248.458 35.1273C247.442 34.6194 247.442 35.1273 247.442 35.1273C247.442 35.1273 247.442 33.6037 246.935 33.0959C246.427 32.5881 246.427 33.0959 245.919 33.6038C245.411 34.1116 244.395 35.6351 244.395 35.6351C244.395 35.6351 243.888 35.1273 243.38 34.1116C242.872 33.0959 242.364 32.5881 241.856 32.0802C241.348 31.5724 239.317 31.0645 237.793 30.0489C236.27 29.541 236.27 29.541 235.762 30.0489C235.254 30.0489 233.731 31.5724 231.699 32.5881C232.207 32.5881 230.176 34.6194 229.668 37.6665C228.652 40.7135 228.144 41.7292 227.637 43.7606C226.621 45.2841 225.097 46.8077 223.574 49.3469C222.05 51.3782 220.019 55.441 219.003 56.9645L216.972 63.0586C216.464 65.09 214.941 66.1057 214.941 67.6292C214.941 69.1527 215.448 69.6606 215.448 70.1684C215.448 70.6763 213.925 71.1841 212.909 72.1998C211.893 73.2155 211.386 74.739 210.878 75.2469C210.878 76.2625 209.862 76.2625 209.354 76.2625C208.846 76.2625 209.354 76.7704 208.339 78.2939C207.323 79.3096 206.307 79.3096 205.292 79.3096C203.768 79.3096 201.229 79.3096 197.674 78.8018C194.119 78.8018 195.135 78.2939 194.627 77.7861C194.119 77.2782 193.103 76.7704 192.595 76.2625C192.088 76.2625 192.595 75.2469 192.595 74.739C192.595 74.2312 192.595 73.7233 191.58 73.7233C190.056 73.7233 190.056 73.2155 188.533 72.1998C187.009 71.1841 187.009 70.6763 185.486 69.1527C183.962 67.6292 183.454 67.1214 182.439 66.6135C181.931 66.6135 179.899 65.5978 179.899 65.5978C179.899 65.5978 179.899 66.6135 179.392 67.6292C178.884 68.1371 178.376 68.1371 176.344 68.6449C174.313 68.6449 173.297 67.6292 172.79 67.6292C172.282 67.6292 172.79 67.1214 172.79 67.1214C172.79 67.1214 174.821 67.6292 176.344 67.1214C178.376 67.1214 178.884 66.1057 178.884 65.5978V64.0743C178.884 63.5665 179.392 63.5665 180.407 63.5665C180.915 63.5665 182.439 63.0586 182.946 63.0586C183.962 62.5508 183.962 61.5351 183.454 61.0273V60.0116C183.454 59.5037 183.454 58.9959 182.946 58.9959C182.439 58.9959 182.439 58.488 182.946 57.9802C183.454 57.9802 183.454 57.9802 183.454 57.4724C183.454 56.9645 183.454 56.4567 182.946 56.4567V55.441C182.946 55.441 183.454 55.441 182.946 54.4253C182.946 53.4096 181.931 53.9175 180.915 53.4096C180.407 52.9018 180.915 51.3782 180.915 50.8704C180.915 50.3626 180.915 50.3626 180.407 49.3469C179.899 48.3312 180.915 48.839 180.915 48.839C180.915 48.839 181.423 49.3469 181.423 49.8547C181.931 50.3626 181.931 48.839 182.439 48.839C182.946 48.3312 182.946 48.3312 182.946 47.8234C182.946 47.3155 182.439 46.8077 181.423 45.792C180.407 44.7763 179.899 44.7763 178.884 44.2684C177.868 43.7606 177.36 43.2528 175.329 43.2528C173.297 42.7449 172.79 43.2528 170.25 43.2528C167.711 43.2528 165.68 44.7763 163.648 46.8077C161.617 48.839 160.601 52.9018 161.109 54.4253C161.109 55.9488 161.109 58.9959 160.601 61.0273C160.094 63.5665 161.109 64.5822 161.617 65.09C162.125 65.5978 163.141 64.5822 164.156 64.5822C165.172 64.5822 166.188 65.5978 167.203 66.1057C168.219 66.1057 167.711 66.6135 167.203 66.6135C166.695 66.6135 165.68 66.6135 164.664 67.1214C163.648 67.6292 163.141 68.1371 161.109 70.6763C159.078 73.2155 157.554 74.739 156.539 75.2469C155.523 75.7547 155.523 75.7547 155.523 76.7704C155.523 77.2782 156.031 77.2782 156.031 78.2939C156.031 78.8018 155.015 79.3096 154.507 79.8174C153.999 80.3253 152.476 80.8331 149.937 83.3723C147.397 85.4037 146.382 86.4194 145.366 87.4351C144.35 88.4508 143.335 88.4508 142.319 89.4665L139.272 92.5135C138.256 93.0214 138.256 93.0214 138.256 94.037C138.256 94.5449 138.764 94.037 138.764 94.5449C138.764 95.0527 137.748 95.5606 137.748 95.5606C137.241 94.037 136.225 93.0214 135.209 92.5135C134.194 92.0057 131.654 91.4978 131.654 91.4978L130.639 89.4665C129.623 88.4508 129.115 88.4508 127.592 88.9586C126.068 89.4665 125.56 91.4978 125.052 92.5135C125.052 93.5292 126.068 95.5606 126.068 95.5606C126.068 95.5606 125.56 96.0684 125.052 97.5919C125.56 99.6233 125.56 101.147 125.56 101.147C123.529 101.147 122.513 102.67 122.513 103.686C122.513 104.194 122.005 107.749 124.545 108.257C127.592 109.272 128.099 106.733 128.099 106.733C128.099 106.733 128.099 107.241 130.639 107.241C132.67 107.749 133.686 107.241 133.686 107.241C133.686 108.257 134.194 109.272 134.194 109.272C132.162 108.764 131.146 110.288 130.639 110.796C130.639 111.304 129.623 115.366 134.194 115.874C138.764 116.382 139.272 112.827 139.272 112.827H140.288C140.795 112.827 141.811 113.335 141.811 113.335C141.811 114.351 142.827 115.874 142.827 115.874C141.303 116.382 141.303 116.382 140.795 117.906C140.288 118.921 141.303 120.445 142.827 121.461C144.35 122.476 146.382 122.476 147.905 120.953C149.937 119.429 149.429 117.906 149.429 115.874C149.429 113.843 148.413 112.827 148.413 112.319C147.905 111.812 148.921 110.796 149.429 110.796C149.937 110.796 150.444 111.304 150.444 112.319C150.444 113.335 150.444 113.843 150.952 115.366C151.46 116.382 152.476 116.89 153.999 116.382C155.523 116.382 156.539 115.874 157.554 113.335C158.57 110.796 157.554 108.764 156.539 106.733C155.523 104.702 152.984 104.194 152.476 103.686C151.968 103.178 151.968 102.67 151.46 101.147C150.952 100.131 149.937 99.1155 148.413 98.6076C146.89 98.0998 147.397 98.6076 147.397 98.0998V96.0684C148.413 96.0684 148.413 96.0684 148.413 95.5606C148.413 95.0527 148.413 95.0527 147.905 94.037C147.905 93.5292 147.905 92.5135 148.921 91.4978C149.937 90.4821 150.444 90.4821 150.952 90.4821C151.46 90.4821 151.46 89.9743 152.984 89.4665C154.507 88.9586 156.031 87.9429 158.062 86.9272C159.586 85.9116 160.601 84.388 161.109 84.388C161.617 84.388 161.617 84.8959 162.125 84.8959C162.633 85.4037 162.125 85.4037 162.633 86.4194C163.141 86.9272 163.648 86.4194 164.156 85.9116C164.664 85.4037 165.68 85.4037 166.188 85.4037C166.695 85.4037 166.695 86.4194 166.695 87.4351C166.695 88.9586 166.695 88.9586 167.711 89.4665C168.727 90.4821 168.219 89.9743 167.711 90.4821C167.711 90.99 166.695 90.99 166.188 90.99L164.156 93.0214C163.141 94.037 162.633 95.0527 161.109 97.0841C160.094 99.1155 159.078 100.131 157.554 101.655C156.031 103.178 155.523 104.194 155.523 104.194H158.062C159.078 104.194 160.094 105.717 161.109 107.241C162.633 108.764 162.125 109.272 161.617 110.288C161.109 111.304 160.601 111.812 159.078 112.319C157.554 112.827 156.539 114.351 155.015 115.874C153.492 117.398 151.968 120.445 151.46 120.953C150.952 121.461 150.952 121.461 150.444 121.461C149.937 121.461 150.444 121.968 149.429 122.476C149.429 122.476 148.921 122.476 148.413 122.984C148.413 122.984 148.413 123.492 147.905 123.492C146.382 124.508 146.89 124 145.874 124.508C144.35 124.508 142.827 125.015 141.811 125.015C140.795 125.523 141.303 126.539 141.303 127.555C141.303 128.57 141.811 131.11 141.811 132.125V138.727C141.811 140.759 142.827 140.759 143.843 140.759C144.858 140.759 145.366 139.235 145.366 138.219C145.366 137.204 145.874 136.696 146.89 135.172C147.905 133.649 149.429 132.125 149.937 131.617C150.444 131.11 150.952 130.602 151.46 130.602C151.968 130.602 152.476 130.094 152.984 129.586C153.492 129.078 153.492 129.586 154.507 128.57C155.523 128.063 155.015 126.539 155.523 125.523L157.554 123.492C158.57 122.476 161.617 120.445 163.648 118.921C168.219 115.874 168.727 114.859 168.727 114.859C168.727 114.859 170.25 114.859 173.297 115.366C176.344 115.874 174.821 115.366 177.868 114.859C180.915 114.351 179.392 114.859 179.392 115.366C179.899 115.874 179.899 116.382 180.407 117.398C180.915 118.413 180.407 119.937 179.899 122.984C179.899 126.031 180.407 128.063 181.423 130.094C181.931 132.125 181.423 131.617 181.423 131.617C181.423 132.125 180.407 132.125 180.407 133.141C180.407 134.157 180.915 133.649 180.915 134.157C181.423 134.664 180.915 134.157 181.423 135.172V137.712C181.931 138.219 181.423 137.712 181.423 140.251C181.423 142.79 182.439 143.806 183.454 144.313C184.47 144.821 185.486 144.313 187.009 143.806C188.533 143.298 189.041 142.79 192.088 142.79C195.135 142.282 194.627 142.282 196.658 141.266C198.69 140.251 198.182 139.743 198.182 139.743L197.674 138.727C197.674 139.235 196.658 139.743 195.642 139.235C194.627 139.235 195.135 139.235 193.103 138.727C191.58 138.727 192.088 138.219 191.072 137.204C190.564 136.696 189.548 136.188 189.548 135.68V134.157L188.533 133.141V131.617C188.533 131.11 188.025 131.11 188.025 131.11C187.517 130.602 187.517 130.094 187.009 129.586V125.523C187.009 124.508 187.009 122.984 187.517 121.461C187.517 119.937 188.025 116.382 187.517 114.859C187.517 113.843 186.501 112.319 187.009 112.319C187.517 112.319 187.517 112.319 188.533 111.304C189.548 110.796 190.056 109.78 190.564 108.764C191.072 108.257 191.58 107.241 192.088 107.241C192.595 106.733 193.103 106.733 192.088 106.225C191.072 105.717 190.564 105.21 189.548 104.194C188.533 103.178 188.533 102.67 187.009 101.655C185.993 100.131 186.501 100.131 185.993 99.1155C185.486 97.5919 185.486 97.5919 184.978 95.5606C184.47 93.5292 183.454 90.99 182.439 89.9743C181.931 88.9586 182.439 88.9586 182.946 88.4508C183.454 87.9429 183.454 87.4351 183.962 86.9272C183.962 86.4194 183.962 85.4037 183.454 84.388V81.341C183.454 80.3253 183.962 80.8331 184.978 80.8331C185.486 80.8331 185.486 81.341 186.501 82.3567C187.517 83.3723 187.517 82.3567 188.025 81.8488C188.533 81.341 189.041 81.341 189.041 81.341C189.548 81.341 189.548 81.8488 191.58 82.8645C193.611 83.8802 194.627 83.8802 198.182 83.8802C202.244 83.8802 203.768 82.8645 205.799 82.8645C207.831 82.3567 208.339 81.8488 209.354 81.8488C210.37 81.8488 212.401 81.8488 213.417 81.341C214.433 80.8331 213.925 80.3253 214.433 80.3253C214.941 80.3253 214.433 80.8331 214.941 80.8331C215.448 80.8331 215.448 80.3253 215.448 79.8174C215.448 79.3096 215.956 78.8018 216.464 77.7861C216.972 76.2625 217.48 75.7547 217.48 73.7233C217.48 71.692 217.988 72.1998 217.988 71.692C218.495 71.1841 218.495 71.692 220.019 71.1841C221.035 70.6763 221.542 69.1527 222.05 68.1371C222.558 67.1214 224.082 65.5978 225.097 64.0743C226.113 62.0429 226.621 61.5351 227.129 60.5194C227.637 59.5037 227.637 58.9959 228.144 57.9802L231.191 54.9331C232.715 53.4096 232.715 53.4096 233.223 53.9175C233.223 54.4253 233.731 55.441 233.731 56.4567V62.5508C233.731 64.5822 234.746 65.09 235.254 65.5978C235.762 66.1057 235.254 67.1214 235.254 68.1371C234.746 69.1527 234.239 71.692 233.731 75.2469C233.223 78.8018 233.731 81.341 233.731 81.341C232.207 83.3723 231.699 86.4194 230.176 90.4821C228.652 94.5449 228.144 100.639 227.637 101.147C227.637 101.655 226.621 102.163 225.605 103.178C224.59 104.194 224.59 105.21 223.574 106.225C222.558 107.749 220.019 110.288 219.511 111.812C218.495 113.843 217.988 114.859 216.972 118.413C215.956 121.968 213.925 125.015 213.417 126.539C212.401 128.063 212.909 128.57 213.417 129.078C213.925 129.586 213.417 129.586 212.909 130.094C212.401 130.602 211.893 131.617 211.386 133.141C210.878 134.664 210.878 135.172 211.386 135.68C211.893 136.696 212.909 137.204 214.941 137.712C216.972 138.219 216.464 138.219 216.972 138.727C217.48 139.235 218.495 140.251 220.527 141.774C222.558 143.298 224.082 143.806 226.113 144.313C228.144 144.821 228.652 144.313 228.652 143.298C229.16 142.282 228.144 141.266 227.637 140.251C227.129 139.235 226.113 138.219 226.113 137.712C225.605 137.204 225.605 136.696 224.082 134.664C223.574 134.157 224.082 134.157 224.082 134.157H225.605C226.621 134.157 226.113 133.141 226.113 132.125C226.113 131.11 226.621 130.094 227.129 129.078C227.637 128.063 228.652 127.047 229.668 125.523C230.684 124 231.192 122.476 231.699 120.953C232.207 119.429 232.207 119.937 233.223 118.413C234.239 116.89 235.762 115.366 237.793 112.827C239.825 110.288 239.825 109.78 240.333 107.749C240.84 105.717 243.38 102.163 244.395 100.131C245.411 98.0998 247.95 95.0527 248.458 94.037C249.474 92.5135 249.474 93.0214 249.982 94.037C250.49 94.5449 254.044 98.6076 256.584 100.639C259.123 102.67 261.662 105.21 262.17 106.733C262.678 108.257 262.17 110.288 262.17 115.366C262.17 120.445 263.186 122.984 263.693 126.031C264.201 129.078 265.725 134.157 266.233 136.696C266.74 139.235 266.74 137.712 267.756 138.219C268.772 138.727 269.28 138.727 269.788 139.235C270.295 139.743 269.788 139.743 269.28 140.759C269.28 141.774 269.28 141.774 269.788 143.298C270.295 144.821 270.803 145.329 271.311 145.837C271.819 146.345 272.835 145.837 274.866 145.837C276.897 145.329 277.913 144.821 279.944 144.821C281.468 144.313 282.484 144.821 285.023 144.821C287.562 144.821 287.562 144.313 289.086 143.298C290.609 142.79 290.609 142.282 290.101 141.266C290.101 140.759 289.086 140.251 288.578 140.251C288.07 140.251 287.054 140.251 286.546 139.743C285.531 139.235 285.531 139.743 284.515 139.235C283.499 138.727 282.991 138.219 280.96 137.712C278.929 136.696 278.929 137.204 278.929 136.696C278.929 136.188 279.944 135.68 280.452 134.664C280.96 133.649 280.452 133.649 279.944 132.633C279.437 131.617 278.421 129.586 277.913 127.555C277.405 125.523 275.882 119.937 275.374 117.906C274.866 115.874 275.374 113.843 274.866 108.764C274.866 103.686 273.85 102.163 273.342 100.131C272.327 98.0998 271.311 96.0684 269.788 93.5292C268.264 90.99 266.74 88.9586 264.709 85.9116C262.678 82.8645 261.154 79.3096 260.646 77.2782C260.139 75.2469 260.139 75.2469 260.139 73.7233C259.631 72.1998 259.631 71.1841 258.615 70.1684C258.107 69.1527 258.615 69.1527 258.615 68.6449C259.123 67.6292 260.139 68.1371 260.139 67.1214C260.646 66.1057 259.631 65.09 260.139 64.5822C260.646 64.0743 260.646 64.0743 261.154 63.0586C261.154 62.0429 260.646 61.5351 260.646 61.0273C260.139 60.5194 260.646 59.5037 260.646 57.9802L261.154 56.4567C261.154 56.4567 262.17 56.9645 263.693 58.9959C265.725 62.0429 267.756 63.5665 270.803 65.09C273.85 67.1214 276.897 68.1371 279.944 68.1371C282.991 68.1371 282.484 68.1371 283.499 67.6292C284.515 67.6292 284.515 67.6292 285.023 68.6449L286.546 70.1684C287.562 70.6763 287.562 71.1841 288.07 71.692C288.578 72.1998 288.578 71.692 289.086 71.692C289.593 71.1841 289.086 70.6763 288.578 70.1684C288.07 69.6606 289.086 70.1684 289.593 70.1684C290.101 70.1684 290.101 70.6763 290.101 71.1841C290.101 71.692 290.101 71.692 290.609 72.1998C291.117 72.7076 291.625 72.1998 292.133 72.1998C292.64 72.1998 292.64 72.7076 293.148 73.2155C293.656 73.2155 293.656 72.7076 293.656 71.692C294.164 69.1527 293.656 69.1527 293.148 68.6449M126.068 105.21C125.56 105.21 125.052 105.717 124.545 105.21C123.529 104.194 124.545 103.178 125.052 102.67C125.56 103.178 126.068 104.194 126.068 105.21ZM128.099 94.037C127.592 93.0214 127.592 92.0057 128.607 91.4978C129.115 91.4978 129.623 92.0057 130.131 92.0057C130.639 93.5292 128.607 93.0214 128.099 94.037V94.037ZM129.115 102.163C128.099 101.147 130.131 99.1155 130.639 101.147C130.639 102.163 129.623 102.67 129.115 102.163ZM132.67 100.131C132.162 100.639 132.162 100.639 132.162 100.131V99.6233H132.67V100.131ZM131.654 97.0841C130.639 96.0684 132.162 94.5449 133.178 96.0684C133.178 96.5763 132.162 97.5919 131.654 97.0841ZM133.686 113.335C133.178 113.335 132.162 113.335 131.654 112.827C131.146 111.304 132.67 110.796 133.686 110.796C134.194 110.796 134.701 111.304 135.209 111.812C135.717 112.827 134.701 113.843 133.686 113.335ZM155.015 111.304C155.015 112.319 154.507 113.843 153.492 114.351C152.984 113.843 152.476 113.843 152.476 112.827C151.968 110.796 153.999 110.288 155.015 111.304ZM142.319 119.429C141.303 118.921 141.303 117.398 142.319 116.89C143.335 116.89 144.35 116.89 144.858 117.906C145.874 119.937 143.843 119.937 142.319 119.429Z" fill="#14263D"/>
<path d="M2.1543 153.965H501.872Z" fill="#14263D"/>
<path d="M2.1543 153.965H501.872" stroke="#14263D" stroke-width="0.75"/>
</svg>
