<?xml version="1.0" encoding="UTF-8"?>
<svg width="502px" height="221px" viewBox="0 0 502 221" version="1.1" xmlns="http://www.w3.org/2000/svg" xmlns:xlink="http://www.w3.org/1999/xlink">
    <title>logo</title>
    <g id="Page-1" stroke="none" stroke-width="1" fill="none" fill-rule="evenodd">
        <g id="logo" transform="translate(0.000000, -0.000000)">
            <path d="M5.30413756,176.727344 C5.30413756,171.140344 5.30413756,170.125344 1.74923756,169.617344 L0.225707556,169.617344 C-0.282134444,169.617344 0.225707556,168.601344 0.225707556,168.093344 L13.9374676,168.093344 C14.4452676,168.093344 14.4452676,169.109344 13.9374676,169.617344 L12.9217676,169.617344 C9.87476756,170.125344 9.36686756,170.633344 9.36686756,176.727344 L9.36686756,183.329344 C9.36686756,184.344344 9.36686756,185.360344 9.87476756,185.360344 C10.3825676,185.360344 10.8903676,184.852344 11.3982676,184.852344 C12.4139676,184.344344 13.4296676,182.821344 14.4452676,182.313344 L20.5394676,176.219344 C21.5550676,175.203344 24.0943676,172.156344 24.6021676,171.648344 C25.1099676,171.140344 25.1099676,171.140344 25.1099676,170.633344 C25.1099676,170.633344 25.1099676,170.125344 24.0943676,170.125344 L22.5707676,169.617344 C23.0786676,169.109344 23.0786676,168.601344 23.5864676,168.093344 L35.2668676,168.093344 C35.7746676,168.601344 35.7746676,169.109344 35.2668676,169.617344 C33.7433676,169.617344 31.7119676,170.125344 30.1884676,171.140344 C28.6648676,172.156344 25.6178676,174.695344 22.5707676,177.742344 L17.4923676,182.313344 L15.9688676,183.837344 C15.9688676,184.344344 16.4766676,184.852344 16.9845676,185.360344 C22.0629676,191.454344 26.6335676,196.533344 30.6962676,201.103344 C32.2197676,202.627344 33.2354676,203.135344 35.2668676,203.135344 L36.7903676,203.135344 C37.2982676,203.642344 37.2982676,204.150344 36.7903676,204.658344 L24.0943676,204.658344 C23.5864676,204.658344 23.5864676,203.642344 24.0943676,203.135344 L25.6178676,203.135344 C26.6335676,203.135344 27.1413676,202.627344 27.1413676,202.627344 C27.1413676,202.119344 26.6335676,201.611344 26.1256676,201.611344 C25.1099676,200.087344 23.5864676,198.564344 21.5550676,196.533344 L16.9845676,191.454344 C13.9374676,187.899344 12.9217676,186.884344 11.3982676,186.884344 C10.3825676,186.884344 10.3825676,187.391344 10.3825676,189.423344 L10.3825676,196.533344 C10.3825676,202.119344 10.3825676,203.135344 13.4296676,203.642344 L14.9531676,203.642344 C15.4609676,203.642344 14.9531676,204.658344 14.9531676,205.166344 L1.74923756,205.166344 C1.24139756,205.166344 1.24139756,204.150344 1.74923756,203.642344 L2.76491756,203.642344 C5.81197756,203.135344 5.81197756,202.627344 5.81197756,196.533344 L5.81197756,176.727344" id="Path" fill="#E6E6E6" fill-rule="nonzero"></path>
            <path d="M57.6115676,188.914344 C57.6115676,186.883344 57.6115676,186.375344 56.0879676,185.359344 L55.5801676,184.851344 L55.5801676,183.836344 C57.1036676,183.328344 60.1507676,181.804344 61.1664676,181.297344 C61.1664676,181.297344 61.6742676,181.297344 61.6742676,181.804344 L61.6742676,184.344344 C61.6742676,184.851344 61.6742676,184.851344 62.1821676,184.851344 C64.7213676,183.328344 67.2605676,181.804344 69.7997676,181.804344 C74.3703676,181.804344 76.4016676,184.851344 76.4016676,188.406344 L76.4016676,198.055344 C76.4016676,202.118344 76.4016676,202.626344 78.4330676,202.626344 L79.4487676,202.626344 C79.9565676,203.134344 79.9565676,203.642344 79.4487676,204.149344 L69.2919676,204.149344 C68.7840676,204.149344 68.7840676,203.134344 69.2919676,202.626344 L70.3075676,202.626344 C72.3389676,202.118344 72.3389676,201.610344 72.3389676,198.055344 L72.3389676,189.930344 C72.3389676,186.883344 70.8154676,184.344344 67.2605676,184.344344 C65.2291676,184.344344 63.1977676,185.359344 62.6899676,186.375344 C62.1821676,187.391344 61.6742676,187.898344 61.6742676,189.930344 L61.6742676,198.563344 C61.6742676,202.626344 61.6742676,203.134344 63.7056676,203.134344 L64.7213676,203.134344 C65.2291676,203.642344 65.2291676,204.149344 64.7213676,204.657344 L54.5644676,204.657344 C54.0566676,204.657344 54.0566676,203.642344 54.5644676,203.134344 L55.5801676,203.134344 C57.6115676,202.626344 57.6115676,202.118344 57.6115676,198.563344 L57.6115676,188.914344" id="Path" fill="#E6E6E6" fill-rule="nonzero"></path>
            <path d="M84.0197676,188.914344 C84.0197676,186.883344 84.0197676,186.375344 82.4961676,185.359344 L81.9883676,184.851344 L81.9883676,183.836344 C83.0040676,183.328344 86.5589676,181.804344 87.5746676,181.297344 C87.5746676,181.297344 88.0824676,181.297344 88.0824676,181.804344 L88.0824676,184.344344 C88.0824676,184.851344 88.0824676,184.851344 88.5903676,184.851344 C91.1295676,183.328344 93.6687676,181.804344 96.2079676,181.804344 C100.778868,181.804344 102.809868,184.851344 102.809868,188.406344 L102.809868,198.055344 C102.809868,202.118344 102.809868,202.626344 104.840868,202.626344 L105.856868,202.626344 C106.364868,203.134344 106.364868,203.642344 105.856868,204.149344 L95.7000676,204.149344 C95.1922676,204.149344 95.1922676,203.134344 95.7000676,202.626344 L96.7157676,202.626344 C98.7471676,202.118344 98.7471676,201.610344 98.7471676,198.055344 L98.7471676,189.930344 C98.7471676,186.883344 97.2236676,184.344344 93.6687676,184.344344 C91.6373676,184.344344 89.6059676,185.359344 89.0981676,186.375344 C88.5903676,187.391344 88.0824676,187.898344 88.0824676,189.930344 L88.0824676,198.563344 C88.0824676,202.626344 88.0824676,203.134344 90.1138676,203.134344 L91.1295676,203.134344 C91.6373676,203.642344 91.6373676,204.149344 91.1295676,204.657344 L80.9726676,204.657344 C80.4648676,204.657344 80.4648676,203.642344 80.9726676,203.134344 L81.9883676,203.134344 C84.0197676,202.626344 84.0197676,202.118344 84.0197676,198.563344 L84.0197676,188.914344" id="Path" fill="#E6E6E6" fill-rule="nonzero"></path>
            <path d="M149.023868,197.039344 C149.023868,201.609344 149.023868,203.641344 150.546868,203.641344 C151.054868,203.641344 152.070868,203.133344 153.086868,203.133344 C153.593868,203.133344 153.593868,204.656344 153.086868,204.656344 C150.546868,205.164344 147.499868,205.672344 145.976868,206.180344 C145.468868,206.180344 145.468868,206.180344 145.468868,205.672344 L145.468868,203.133344 C142.929868,204.656344 141.405868,205.672344 138.358868,205.672344 C132.264868,205.672344 128.201868,201.101344 128.201868,195.007344 C128.201868,187.390344 134.295868,182.311344 141.405868,182.311344 C143.437868,182.311344 144.452868,182.819344 144.960868,182.819344 C145.468868,182.819344 145.468868,182.311344 145.468868,181.803344 L145.468868,173.678344 C145.468868,170.631344 145.468868,170.123344 143.944868,169.107344 L143.437868,168.599344 C142.929868,168.599344 142.929868,167.584344 143.437868,167.584344 C144.960868,167.076344 147.499868,166.568344 149.531868,165.045344 C149.531868,165.045344 150.039868,165.045344 150.039868,165.552344 L150.039868,197.039344 M144.960868,188.405344 C144.960868,187.390344 144.960868,186.882344 144.452868,186.374344 C143.437868,185.358344 141.913868,183.835344 139.882868,183.835344 C134.803868,183.835344 132.264868,188.405344 132.264868,192.976344 C132.264868,198.054344 135.311868,202.625344 140.390868,202.625344 C141.913868,202.625344 143.944868,202.117344 144.452868,201.101344 C144.960868,201.101344 144.960868,200.086344 144.960868,199.578344 L144.960868,188.405344 L144.960868,188.405344 Z" id="Shape" fill="#E6E6E6" fill-rule="nonzero"></path>
            <path d="M152.070868,216.340344 C152.070868,214.816344 153.085868,214.308344 154.101868,214.308344 L155.117868,214.308344 C156.132868,214.308344 156.640868,213.800344 157.148868,213.292344 C158.671868,210.753344 159.687868,208.722344 160.195868,207.198344 C160.195868,206.691344 160.703868,205.675344 160.703868,204.659344 C160.703868,203.643344 160.703868,203.136344 159.687868,201.104344 L155.624868,189.424344 C154.609868,186.885344 154.101868,185.361344 152.577868,185.361344 L151.054868,184.345344 C150.546868,183.838344 150.546868,183.330344 151.054868,182.822344 L160.703868,182.822344 C161.211868,182.822344 161.211868,183.838344 160.703868,184.345344 L160.195868,184.345344 C159.179868,184.345344 159.179868,184.853344 159.179868,184.853344 C159.179868,185.361344 160.195868,188.916344 160.703868,189.932344 L162.226868,195.010344 C162.734868,196.026344 163.750868,199.073344 163.750868,199.073344 L165.781868,195.010344 L167.813868,190.440344 C168.828868,187.393344 169.844868,185.361344 169.844868,184.853344 C169.844868,184.345344 169.336868,183.838344 168.320868,183.838344 L166.797868,184.345344 C166.289868,183.838344 166.289868,183.330344 166.797868,182.822344 L175.938868,182.822344 C176.446868,182.822344 176.446868,183.838344 175.938868,184.345344 L174.922868,184.345344 C172.891868,184.853344 171.875868,186.377344 170.352868,190.440344 L167.305868,196.534344 C165.273868,200.089344 160.703868,209.738344 158.164868,215.832344 C157.148868,217.863344 156.132868,218.371344 154.609868,218.371344 C153.085868,218.371344 152.070868,217.863344 152.070868,216.340344" id="Path" fill="#E6E6E6" fill-rule="nonzero"></path>
            <path d="M190.667868,176.727344 C190.667868,171.140344 190.667868,170.125344 187.112868,169.617344 L185.588868,169.617344 C185.080868,169.617344 185.588868,168.601344 185.588868,168.093344 L199.300868,168.093344 C199.808868,168.093344 199.808868,169.109344 199.300868,169.617344 L198.284868,169.617344 C195.237868,170.125344 194.729868,170.633344 194.729868,176.727344 L194.729868,183.329344 C194.729868,184.344344 194.729868,185.360344 195.237868,185.360344 C195.745868,185.360344 196.253868,184.852344 196.761868,184.852344 C197.776868,184.344344 198.792868,182.821344 199.808868,182.313344 L205.902868,176.219344 C206.918868,175.203344 209.457868,172.156344 209.965868,171.648344 C210.472868,171.140344 210.472868,171.140344 210.472868,170.633344 C210.472868,170.633344 210.472868,170.125344 209.457868,170.125344 L207.933868,169.617344 C207.425868,169.109344 207.425868,168.601344 207.933868,168.093344 L219.614868,168.093344 C220.121868,168.601344 220.121868,169.109344 219.614868,169.617344 C218.090868,169.617344 216.059868,170.125344 214.535868,171.140344 C213.012868,172.156344 209.965868,174.695344 206.918868,177.742344 L201.839868,182.313344 C200.823868,183.329344 200.823868,183.837344 200.823868,183.837344 C200.823868,184.344344 201.331868,184.852344 201.839868,185.360344 C206.918868,191.454344 211.488868,196.533344 215.551868,201.103344 C217.074868,202.627344 218.090868,203.135344 220.121868,203.135344 L221.645868,203.135344 C222.153868,203.642344 222.153868,204.150344 221.645868,204.658344 L208.949868,204.658344 C208.441868,204.658344 208.441868,203.642344 208.949868,203.135344 L209.965868,203.135344 C210.980868,203.135344 211.488868,202.627344 211.488868,202.627344 C211.488868,202.119344 210.980868,201.611344 210.472868,201.611344 C209.457868,200.087344 207.933868,198.564344 205.902868,196.533344 L201.331868,191.454344 C198.284868,187.899344 197.269868,186.884344 195.745868,186.884344 C194.729868,186.884344 194.729868,187.391344 194.729868,189.423344 L194.729868,196.533344 C194.729868,202.119344 194.729868,203.135344 197.776868,203.642344 L199.300868,203.642344 C199.808868,203.642344 199.300868,204.658344 199.300868,205.166344 L186.096868,205.166344 C185.588868,205.166344 185.588868,204.150344 186.096868,203.642344 L187.112868,203.642344 C190.159868,203.135344 190.159868,202.627344 190.159868,196.533344 L190.159868,176.727344" id="Path" fill="#E6E6E6" fill-rule="nonzero"></path>
            <path d="M224.692868,188.914344 C224.692868,186.883344 224.692868,186.375344 223.168868,185.359344 L222.660868,184.851344 L222.660868,183.836344 C224.184868,183.328344 226.723868,181.804344 228.247868,181.297344 C228.754868,181.297344 228.754868,181.297344 228.754868,181.804344 L228.754868,185.359344 C230.786868,183.836344 232.817868,181.804344 234.849868,181.804344 C236.372868,181.804344 237.388868,182.820344 237.388868,183.836344 C237.388868,185.867344 235.864868,186.375344 234.849868,186.375344 C234.341868,186.375344 233.833868,186.375344 233.833868,185.867344 C232.817868,185.359344 232.309868,184.851344 231.294868,184.851344 C230.278868,184.851344 229.770868,185.359344 229.262868,185.867344 C228.754868,186.883344 228.754868,188.406344 228.754868,189.930344 L228.754868,197.548344 C228.754868,201.610344 228.754868,202.118344 230.786868,202.118344 L232.817868,202.118344 C233.325868,202.626344 233.325868,203.134344 232.817868,203.642344 L221.645868,203.642344 C221.137868,203.642344 221.137868,202.626344 221.645868,202.118344 L222.660868,202.118344 C224.692868,201.610344 224.692868,201.102344 224.692868,197.548344 L224.692868,188.914344" id="Path" fill="#E6E6E6" fill-rule="nonzero"></path>
            <path d="M242.974868,188.917344 C242.974868,186.886344 242.974868,186.378344 241.450868,185.362344 L240.943868,184.854344 L240.943868,183.838344 C242.466868,183.331344 245.513868,181.807344 246.529868,181.299344 C247.037868,181.299344 247.037868,181.299344 247.037868,181.807344 L247.037868,198.566344 C247.037868,202.629344 247.037868,203.136344 249.068868,203.136344 L250.084868,203.136344 C250.592868,203.644344 250.592868,204.152344 250.084868,204.660344 L239.927868,204.660344 C239.419868,204.660344 239.419868,203.644344 239.927868,203.136344 L240.943868,203.136344 C242.974868,202.629344 242.974868,202.121344 242.974868,198.566344 L242.974868,188.917344 M247.545868,171.142344 C247.545868,173.174344 246.021868,174.189344 244.497868,174.189344 C242.974868,174.189344 241.450868,173.174344 241.450868,171.650344 C241.450868,169.619344 242.974868,168.603344 244.497868,168.603344 C246.529868,168.095344 247.545868,169.619344 247.545868,171.142344 Z" id="Shape" fill="#E6E6E6" fill-rule="nonzero"></path>
            <path d="M295.282868,184.345344 C295.790868,184.853344 295.790868,186.377344 294.774868,186.377344 L290.711868,186.377344 L290.711868,189.424344 C290.711868,193.487344 288.680868,198.057344 281.570868,198.057344 L279.031868,198.057344 C279.031868,198.565344 276.999868,199.581344 276.999868,201.104344 C276.999868,202.120344 278.523868,203.643344 281.062868,203.643344 L287.664868,203.643344 C290.711868,203.643344 295.282868,204.151344 295.282868,209.738344 C295.282868,215.832344 288.680868,220.402344 281.570868,220.402344 C274.968868,220.402344 272.429868,216.847344 272.429868,213.800344 C272.429868,212.785344 272.429868,212.277344 272.937868,211.769344 L276.492868,208.214344 C276.999868,207.706344 277.507868,207.198344 276.999868,206.691344 C274.968868,206.183344 272.937868,204.151344 272.937868,202.120344 C272.937868,201.612344 272.937868,201.612344 273.952868,201.104344 C274.968868,200.596344 275.984868,199.581344 276.999868,198.565344 C277.507868,198.057344 277.507868,197.549344 277.507868,197.549344 C275.476868,196.534344 273.445868,194.502344 273.445868,190.947344 C273.445868,186.377344 277.507868,182.822344 282.586868,182.822344 C284.617868,182.822344 286.648868,183.330344 287.664868,183.838344 C289.188868,184.853344 289.695868,184.853344 291.219868,184.853344 L295.282868,184.345344 M284.109868,206.691344 C282.586868,206.691344 280.046868,206.691344 279.539868,207.198344 C278.015868,208.214344 276.999868,209.738344 276.999868,211.769344 C276.999868,214.816344 279.539868,217.355344 284.617868,217.355344 C289.695868,217.355344 292.743868,214.816344 292.743868,211.261344 C292.743868,207.706344 290.203868,206.691344 286.648868,206.691344 L284.109868,206.691344 Z M287.156868,190.947344 C287.156868,187.393344 285.633868,183.838344 282.078868,183.838344 C279.539868,183.838344 277.507868,186.377344 277.507868,189.932344 C277.507868,193.994344 280.046868,196.534344 282.586868,196.534344 C285.633868,196.534344 287.156868,193.994344 287.156868,190.947344 Z" id="Shape" fill="#E6E6E6" fill-rule="nonzero"></path>
            <path d="M318.644868,188.914344 C318.644868,186.883344 318.644868,186.375344 317.120868,185.359344 L316.613868,184.851344 L316.613868,183.836344 C317.628868,183.328344 320.675868,181.804344 322.199868,181.297344 C322.707868,181.297344 322.707868,181.297344 322.707868,181.804344 L322.707868,185.359344 C324.738868,183.836344 326.769868,181.804344 328.801868,181.804344 C330.324868,181.804344 331.340868,182.820344 331.340868,183.836344 C331.340868,185.867344 329.816868,186.375344 328.801868,186.375344 C328.293868,186.375344 327.785868,186.375344 327.785868,185.867344 C326.769868,185.359344 326.262868,184.851344 325.246868,184.851344 C324.230868,184.851344 323.722868,185.359344 323.214868,185.867344 C323.214868,187.898344 322.707868,189.422344 322.707868,190.946344 L322.707868,198.563344 C322.707868,202.626344 322.707868,203.134344 324.738868,203.134344 L326.769868,203.134344 C327.277868,203.642344 327.277868,204.149344 326.769868,204.657344 L315.597868,204.657344 C315.089868,204.657344 315.089868,203.642344 315.597868,203.134344 L316.613868,203.134344 C318.644868,202.626344 318.644868,202.118344 318.644868,198.563344 L318.644868,188.914344" id="Path" fill="#E6E6E6" fill-rule="nonzero"></path>
            <path d="M347.083868,176.727344 C347.083868,170.633344 347.083868,170.125344 343.529868,169.617344 L342.005868,169.617344 C341.497868,169.617344 342.005868,168.601344 342.005868,168.093344 L355.717868,168.093344 C356.225868,168.093344 356.225868,169.109344 355.717868,169.617344 L354.193868,169.617344 C351.146868,170.125344 350.638868,170.633344 350.638868,176.727344 L350.638868,196.533344 C350.638868,202.627344 350.638868,203.135344 354.193868,203.642344 L355.717868,203.642344 C356.225868,203.642344 355.717868,204.658344 355.717868,205.166344 L342.005868,205.166344 C341.497868,205.166344 341.497868,204.150344 342.005868,203.642344 L343.529868,203.642344 C346.576868,203.135344 347.083868,202.627344 347.083868,196.533344 L347.083868,176.727344 Z" id="Path" fill="#E6E6E6" fill-rule="nonzero"></path>
            <path d="M361.810868,188.914344 C361.810868,186.883344 361.810868,186.375344 360.286868,185.359344 L359.779868,184.851344 L359.779868,183.836344 C361.302868,183.328344 364.349868,181.804344 365.365868,181.297344 C365.365868,181.297344 365.873868,181.297344 365.873868,181.804344 L365.873868,184.344344 C365.873868,184.851344 365.873868,184.851344 366.380868,184.851344 C368.920868,183.328344 371.459868,181.804344 373.998868,181.804344 C378.569868,181.804344 380.600868,184.851344 380.600868,188.406344 L380.600868,198.055344 C380.600868,202.118344 380.600868,202.626344 382.631868,202.626344 L383.647868,202.626344 C384.155868,203.134344 384.155868,203.642344 383.647868,204.149344 L373.490868,204.149344 C372.982868,204.149344 372.982868,203.134344 373.490868,202.626344 L374.506868,202.626344 C376.537868,202.118344 376.537868,201.610344 376.537868,198.055344 L376.537868,189.930344 C376.537868,186.883344 375.014868,184.344344 371.459868,184.344344 C369.428868,184.344344 367.396868,185.359344 366.888868,186.375344 C366.380868,187.391344 365.873868,187.898344 365.873868,189.930344 L365.873868,198.563344 C365.873868,202.626344 365.873868,203.134344 367.904868,203.134344 L368.920868,203.134344 C369.428868,203.642344 369.428868,204.149344 368.920868,204.657344 L358.763868,204.657344 C358.255868,204.657344 358.255868,203.642344 358.763868,203.134344 L359.779868,203.134344 C361.810868,202.626344 361.810868,202.118344 361.810868,198.563344 L361.810868,188.914344" id="Path" fill="#E6E6E6" fill-rule="nonzero"></path>
            <path d="M397.867868,183.331344 C398.374868,184.347344 398.882868,186.378344 398.882868,187.902344 C398.882868,188.410344 397.867868,188.410344 397.359868,187.902344 C396.343868,185.363344 394.820868,183.839344 392.280868,183.839344 C390.249868,183.839344 388.725868,185.363344 388.725868,187.394344 C388.725868,189.425344 391.265868,190.949344 392.788868,191.964344 C395.835868,193.488344 398.374868,195.519344 398.374868,199.582344 C398.374868,203.645344 394.312868,205.676344 390.249868,205.676344 C387.710868,205.676344 385.678868,205.168344 384.155868,204.153344 C383.647868,203.137344 383.139868,200.598344 383.647868,198.566344 C384.155868,198.059344 384.663868,198.059344 385.171868,198.566344 C386.186868,201.613344 387.710868,204.153344 391.265868,204.153344 C393.296868,204.153344 394.820868,203.137344 394.820868,200.598344 C394.820868,198.059344 392.788868,196.535344 390.757868,195.519344 C387.710868,193.488344 385.171868,191.964344 385.171868,188.917344 C385.171868,184.855344 388.725868,182.823344 392.788868,182.823344 C395.327868,182.315344 397.359868,182.823344 397.867868,183.331344" id="Path" fill="#E6E6E6" fill-rule="nonzero"></path>
            <path d="M409.038868,185.363344 C408.022868,185.363344 408.022868,185.363344 408.022868,186.887344 L408.022868,197.044344 C408.022868,200.091344 408.530868,203.138344 412.085868,203.138344 C412.593868,203.138344 413.100868,203.138344 413.608868,202.630344 C414.116868,202.630344 414.624868,201.614344 415.132868,201.614344 C415.640868,201.614344 415.640868,202.122344 415.640868,202.630344 C414.624868,203.646344 412.593868,205.169344 410.053868,205.169344 C405.483868,205.169344 404.467868,202.630344 404.467868,199.075344 L404.467868,186.379344 C404.467868,184.855344 404.467868,184.855344 403.451868,184.855344 L401.928868,184.855344 C401.420868,184.855344 401.420868,183.840344 401.928868,183.840344 C403.451868,183.332344 404.975868,182.824344 405.483868,182.316344 C405.991868,181.808344 407.006868,180.285344 408.022868,179.269344 C408.530868,179.269344 409.038868,179.269344 409.038868,179.777344 L409.038868,182.316344 C409.038868,183.332344 409.038868,183.332344 410.053868,183.332344 L416.147868,183.332344 C416.655868,183.840344 416.655868,185.363344 416.147868,185.871344 L409.038868,185.871344" id="Path" fill="#E6E6E6" fill-rule="nonzero"></path>
            <path d="M419.705868,188.917344 C419.705868,186.886344 419.705868,186.378344 418.182868,185.362344 L417.674868,184.854344 L417.674868,183.838344 C419.198868,183.331344 422.245868,181.807344 423.260868,181.299344 C423.768868,181.299344 423.768868,181.299344 423.768868,181.807344 L423.768868,198.566344 C423.768868,202.629344 423.768868,203.136344 425.800868,203.136344 L426.815868,203.136344 C427.323868,203.644344 427.323868,204.152344 426.815868,204.660344 L416.658868,204.660344 C416.150868,204.660344 416.150868,203.644344 416.658868,203.136344 L417.674868,203.136344 C419.705868,202.629344 419.705868,202.121344 419.705868,198.566344 L419.705868,188.917344 M424.276868,171.142344 C424.276868,173.174344 422.752868,174.189344 421.229868,174.189344 C419.705868,174.189344 418.182868,173.174344 418.182868,171.650344 C418.182868,169.619344 419.705868,168.603344 421.229868,168.603344 C423.260868,168.095344 424.276868,169.619344 424.276868,171.142344 Z" id="Shape" fill="#E6E6E6" fill-rule="nonzero"></path>
            <path d="M435.955868,185.363344 C434.939868,185.363344 434.939868,185.363344 434.939868,186.887344 L434.939868,197.044344 C434.939868,200.091344 435.447868,203.138344 439.002868,203.138344 C439.510868,203.138344 440.017868,203.138344 440.525868,202.630344 C441.033868,202.630344 441.541868,201.614344 442.049868,201.614344 C442.557868,201.614344 442.557868,202.122344 442.557868,202.630344 C441.541868,203.646344 439.510868,205.169344 436.970868,205.169344 C432.400868,205.169344 431.384868,202.630344 431.384868,199.075344 L431.384868,186.379344 C431.384868,184.855344 431.384868,184.855344 430.368868,184.855344 L428.845868,184.855344 C428.337868,184.855344 428.337868,183.840344 428.845868,183.840344 C430.368868,183.332344 431.892868,182.824344 432.400868,182.316344 C432.908868,181.808344 433.923868,180.285344 434.939868,179.269344 C435.447868,179.269344 435.955868,179.269344 435.955868,179.777344 L435.955868,182.316344 C435.955868,183.332344 435.955868,183.332344 436.970868,183.332344 L443.064868,183.332344 C443.572868,183.840344 443.572868,185.363344 443.064868,185.871344 L435.955868,185.871344" id="Path" fill="#E6E6E6" fill-rule="nonzero"></path>
            <path d="M450.174868,196.534344 C450.174868,200.596344 451.190868,203.136344 455.253868,203.136344 C456.776868,203.136344 458.300868,202.628344 459.823868,201.612344 C460.331868,201.104344 460.839868,200.089344 460.839868,198.565344 L460.839868,189.424344 C460.839868,185.869344 460.331868,185.869344 458.808868,184.853344 L458.300868,184.345344 C457.792868,184.345344 457.792868,183.330344 458.300868,183.330344 C460.331868,183.330344 463.378868,182.822344 464.902868,182.314344 C465.410868,182.314344 465.410868,182.314344 465.410868,182.822344 L465.410868,196.534344 C465.410868,201.104344 465.410868,202.628344 466.933868,202.628344 C467.441868,202.628344 468.457868,202.628344 468.965868,202.120344 C469.472868,202.628344 469.472868,203.644344 468.965868,203.644344 C466.933868,204.151344 463.378868,204.659344 461.855868,205.675344 C461.347868,205.675344 461.347868,205.675344 461.347868,205.167344 L461.347868,203.136344 C461.347868,202.628344 461.347868,202.120344 460.839868,202.120344 C459.315868,203.136344 456.268868,205.167344 453.221868,205.167344 C448.143868,205.167344 446.619868,202.628344 446.619868,198.057344 L446.619868,189.424344 C446.619868,185.869344 446.619868,185.361344 445.096868,184.853344 L444.080868,184.345344 C443.572868,183.838344 443.572868,183.330344 444.080868,183.330344 C446.619868,183.330344 448.651868,182.822344 450.174868,182.314344 C450.682868,182.314344 450.682868,182.314344 450.682868,182.822344 L450.682868,187.393344 L450.174868,196.534344" id="Path" fill="#E6E6E6" fill-rule="nonzero"></path>
            <path d="M477.090868,185.363344 C476.075868,185.363344 476.075868,185.363344 476.075868,186.887344 L476.075868,197.044344 C476.075868,200.091344 476.583868,203.138344 480.137868,203.138344 C480.645868,203.138344 481.153868,203.138344 481.661868,202.630344 C482.169868,202.630344 482.677868,201.614344 483.185868,201.614344 C483.692868,201.614344 483.692868,202.122344 483.692868,202.630344 C482.677868,203.646344 480.645868,205.169344 478.106868,205.169344 C473.535868,205.169344 472.520868,202.630344 472.520868,199.075344 L472.520868,186.379344 C472.520868,184.855344 472.520868,184.855344 471.504868,184.855344 L469.981868,184.855344 C469.473868,184.855344 469.473868,183.840344 469.981868,183.840344 C471.504868,183.332344 473.028868,182.824344 473.535868,182.316344 C474.043868,181.808344 475.059868,180.285344 476.075868,179.269344 C476.583868,179.269344 477.090868,179.269344 477.090868,179.777344 L477.090868,182.316344 C477.090868,183.332344 477.090868,183.332344 478.106868,183.332344 L484.200868,183.332344 C484.708868,183.840344 484.708868,185.363344 484.200868,185.871344 L477.090868,185.871344" id="Path" fill="#E6E6E6" fill-rule="nonzero"></path>
            <path d="M39.8391676,190.947344 C38.3156676,190.947344 38.3156676,190.947344 38.3156676,192.471344 C38.3156676,198.057344 41.3626676,202.628344 46.9489676,202.628344 C48.4724676,202.628344 49.9960676,202.120344 51.5195676,200.089344 C52.0273676,200.089344 52.5352676,200.089344 52.5352676,200.596344 C51.0116676,204.151344 46.9489676,205.675344 44.4097676,205.675344 C40.8548676,205.675344 38.3156676,204.151344 36.7920676,202.120344 C35.2685676,200.089344 34.7607676,197.549344 34.7607676,195.010344 C34.7607676,188.408344 38.8234676,182.314344 45.4254676,182.314344 C49.9960676,182.314344 53.0430676,185.361344 53.0430676,188.916344 L53.0430676,190.440344 C53.0430676,190.947344 52.0273676,190.947344 49.9960676,190.947344 L39.8391676,190.947344 M42.8862676,188.916344 C46.9489676,188.916344 47.9646676,188.916344 48.4724676,188.408344 C48.4724676,188.408344 48.9803676,187.900344 48.9803676,187.393344 C48.9803676,185.869344 47.9646676,183.838344 44.9175676,183.838344 C41.8705676,183.838344 39.3313676,186.885344 39.3313676,188.408344 C39.3313676,188.408344 39.3313676,188.916344 39.8391676,188.916344 L42.8862676,188.916344 L42.8862676,188.916344 Z" id="Shape" fill="#E6E6E6" fill-rule="nonzero"></path>
            <path d="M110.934868,190.947344 C109.410868,190.947344 109.410868,190.947344 109.410868,192.471344 C109.410868,198.057344 112.458868,202.628344 118.044868,202.628344 C119.567868,202.628344 121.091868,202.120344 122.614868,200.089344 C123.122868,200.089344 123.630868,200.089344 123.630868,200.596344 C122.107868,204.151344 118.044868,205.675344 115.505868,205.675344 C111.950868,205.675344 109.410868,204.151344 107.887868,202.120344 C106.363868,200.089344 105.856868,197.549344 105.856868,195.010344 C105.856868,188.408344 109.918868,182.314344 116.520868,182.314344 C121.091868,182.314344 124.138868,185.361344 124.138868,188.916344 L124.138868,190.440344 C124.138868,190.947344 123.122868,190.947344 121.091868,190.947344 L110.934868,190.947344 M114.489868,188.916344 C118.552868,188.916344 119.567868,188.916344 120.075868,188.408344 C120.075868,188.408344 120.583868,187.900344 120.583868,187.393344 C120.583868,185.869344 119.567868,183.838344 116.520868,183.838344 C113.473868,183.838344 110.934868,186.885344 110.934868,188.408344 C110.934868,188.408344 110.934868,188.916344 111.442868,188.916344 L114.489868,188.916344 L114.489868,188.916344 Z" id="Shape" fill="#E6E6E6" fill-rule="nonzero"></path>
            <path d="M257.703868,190.947344 C256.179868,190.947344 256.179868,190.947344 256.179868,192.471344 C256.179868,198.057344 259.226868,202.628344 264.812868,202.628344 C266.336868,202.628344 267.859868,202.120344 269.383868,200.089344 C269.891868,200.089344 270.399868,200.089344 270.399868,200.596344 C268.875868,204.151344 264.812868,205.675344 262.273868,205.675344 C258.718868,205.675344 256.179868,204.151344 254.655868,202.120344 C253.132868,200.089344 252.624868,197.549344 252.624868,195.010344 C252.624868,188.408344 256.687868,182.314344 263.289868,182.314344 C267.859868,182.314344 270.906868,185.361344 270.906868,188.916344 L270.906868,190.440344 C270.906868,190.947344 269.891868,190.947344 267.859868,190.947344 L257.703868,190.947344 M261.257868,188.916344 C265.320868,188.916344 266.336868,188.916344 266.844868,188.408344 C266.844868,188.408344 267.352868,187.900344 267.352868,187.393344 C267.352868,185.869344 266.336868,183.838344 263.289868,183.838344 C260.242868,183.838344 257.703868,186.885344 257.703868,188.408344 C257.703868,188.408344 257.703868,188.916344 258.210868,188.916344 L261.257868,188.916344 L261.257868,188.916344 Z" id="Shape" fill="#E6E6E6" fill-rule="nonzero"></path>
            <path d="M300.869868,190.947344 C299.345868,190.947344 299.345868,190.947344 299.345868,192.471344 C299.345868,198.057344 302.392868,202.628344 307.978868,202.628344 C309.502868,202.628344 311.025868,202.120344 312.549868,200.089344 C313.057868,200.089344 313.565868,200.089344 313.565868,200.596344 C312.041868,204.151344 307.978868,205.675344 305.439868,205.675344 C301.884868,205.675344 299.345868,204.151344 297.822868,202.120344 C296.298868,200.089344 295.790868,197.549344 295.790868,195.010344 C295.790868,188.408344 299.853868,182.314344 306.455868,182.314344 C311.025868,182.314344 314.072868,185.361344 314.072868,188.916344 L314.072868,190.440344 C314.072868,190.947344 313.057868,190.947344 311.025868,190.947344 L300.869868,190.947344 M303.916868,188.916344 C307.978868,188.916344 308.994868,188.916344 309.502868,188.408344 C309.502868,188.408344 310.010868,187.900344 310.010868,187.393344 C310.010868,185.869344 308.994868,183.838344 305.947868,183.838344 C302.900868,183.838344 300.361868,186.885344 300.361868,188.408344 C300.361868,188.408344 300.361868,188.916344 300.869868,188.916344 L303.916868,188.916344 L303.916868,188.916344 Z" id="Shape" fill="#E6E6E6" fill-rule="nonzero"></path>
            <path d="M488.770868,190.947344 C487.246868,190.947344 487.246868,190.947344 487.246868,192.471344 C487.246868,198.057344 490.293868,202.628344 495.880868,202.628344 C497.403868,202.628344 498.927868,202.120344 500.450868,200.089344 C500.958868,200.089344 501.466868,200.089344 501.466868,200.596344 C499.942868,204.151344 495.880868,205.675344 493.341868,205.675344 C489.786868,205.675344 487.246868,204.151344 485.723868,202.120344 C484.199868,200.089344 483.692868,197.549344 483.692868,195.010344 C483.692868,188.408344 487.754868,182.314344 494.356868,182.314344 C498.927868,182.314344 501.974868,185.361344 501.974868,188.916344 L501.974868,190.440344 C501.974868,190.947344 500.958868,190.947344 498.927868,190.947344 L488.770868,190.947344 M491.817868,188.916344 C495.880868,188.916344 496.895868,188.916344 497.403868,188.408344 C497.403868,188.408344 497.911868,187.900344 497.911868,187.393344 C497.911868,185.869344 496.895868,183.838344 493.848868,183.838344 C490.801868,183.838344 488.262868,186.885344 488.262868,188.408344 C488.262868,188.408344 488.262868,188.916344 488.770868,188.916344 L491.817868,188.916344 L491.817868,188.916344 Z" id="Shape" fill="#E6E6E6" fill-rule="nonzero"></path>
            <path d="M354.192868,135.086344 C354.192868,130.008344 358.762868,125.437344 363.841868,125.437344 C369.427868,125.437344 373.490868,130.008344 373.490868,135.086344 C373.490868,140.672344 368.919868,144.735344 363.841868,144.735344 C358.762868,144.735344 354.192868,140.165344 354.192868,135.086344 Z M363.841868,141.688344 C367.395868,141.688344 370.443868,138.641344 370.443868,135.086344 C370.443868,131.531344 367.395868,128.484344 363.841868,128.484344 C360.286868,128.484344 357.239868,131.531344 357.239868,135.086344 C357.239868,138.641344 360.286868,141.688344 363.841868,141.688344 Z" id="Shape" fill="#E6E6E6" fill-rule="nonzero"></path>
            <path d="M368.413868,130.512344 C366.381868,132.543344 366.889868,137.622344 362.826868,137.114344 C360.287868,134.575344 363.842868,131.528344 364.350868,128.481344 L365.366868,125.434344 C365.873868,125.434344 366.381868,124.926344 365.873868,123.910344 C363.334868,122.894344 359.271868,125.434344 357.748868,122.387344 C355.209868,121.879344 354.193868,123.402344 353.177868,124.926344 C348.607868,136.098344 337.942868,143.716344 325.754868,143.208344 C309.503868,143.208344 296.807868,129.496344 296.807868,113.753344 C296.807868,104.104344 301.377868,95.979044 308.487868,90.900644 C310.518868,81.759444 303.409868,71.094744 314.073868,65.508444 C314.073868,65.000644 313.566868,65.000644 313.566868,64.492744 C318.644868,62.969244 322.707868,58.398644 326.262868,55.351644 C328.801868,54.335944 331.848868,55.859444 333.879868,54.335944 C335.403868,57.383044 337.434868,62.461444 342.005868,62.461444 C342.513868,61.953544 343.020868,62.461444 343.020868,61.953544 C347.083868,67.032044 343.528868,73.126144 344.544868,78.712344 C344.036868,79.728044 343.020868,80.743744 343.528868,82.267244 C352.669868,83.790844 363.334868,80.743744 367.397868,89.884944 C366.889868,96.994744 367.397868,104.104344 368.920868,111.722344 C366.889868,112.738344 367.905868,115.277344 369.936868,115.785344 C372.475868,117.816344 378.062868,117.816344 378.062868,120.355344 C379.077868,120.863344 381.109868,120.355344 381.109868,122.387344 L381.109868,122.894344 C377.046868,124.418344 368.413868,121.371344 370.444868,127.465344 L368.413868,130.512344 M344.036868,101.057344 C336.418868,100.549344 327.785868,102.073344 320.675868,102.073344 C320.168868,107.151344 320.675868,114.769344 321.691868,120.355344 C329.817868,120.355344 338.450868,119.339344 347.083868,118.832344 C348.607868,115.277344 347.591868,111.722344 347.083868,108.167344 C346.575868,105.628344 345.052868,103.596344 344.036868,101.057344 L344.036868,101.057344 Z M346.067868,100.549344 C348.607868,104.612344 350.130868,109.183344 350.130868,114.261344 C350.130868,115.785344 350.130868,117.308344 349.622868,118.832344 L351.146868,118.324344 C351.146868,116.800344 351.654868,115.785344 351.654868,114.261344 C351.654868,108.675344 350.130868,103.596344 347.083868,99.534344 L346.067868,100.549344 L346.067868,100.549344 Z M307.471868,96.486844 C302.901868,101.057344 300.362868,107.151344 300.362868,114.261344 C300.362868,128.481344 311.534868,140.161344 325.754868,140.161344 C336.926868,140.161344 346.575868,133.559344 350.130868,123.402344 L349.115868,123.402344 C345.560868,132.543344 336.418868,139.145344 326.262868,138.637344 C312.550868,138.637344 301.885868,127.465344 302.393868,113.753344 C302.393868,107.659344 304.932868,102.073344 308.995868,97.502544 L307.471868,96.486844 L307.471868,96.486844 Z M314.581868,92.424144 C316.105868,91.916344 317.120868,90.900644 318.136868,90.900644 L318.136868,89.884944 C316.613868,90.392744 315.089868,90.900644 313.566868,91.916344 L314.581868,92.424144 L314.581868,92.424144 Z M317.628868,72.618244 C317.120868,70.079044 316.105868,73.633944 314.581868,73.633944 C314.581868,77.696744 312.042868,83.282944 312.550868,87.853544 C314.073868,87.853544 315.597868,86.330044 317.628868,86.330044 C318.644868,81.759444 317.628868,76.681044 317.628868,72.618244 L317.628868,72.618244 Z M356.732868,97.502544 C356.224868,96.994744 356.224868,95.979044 355.209868,95.979044 C348.099868,99.026144 356.224868,105.120344 355.716868,108.675344 C355.209868,104.612344 356.224868,101.057344 356.732868,97.502544 Z M356.732868,115.277344 C356.224868,111.722344 355.209868,117.308344 356.224868,118.324344 C356.732868,118.324344 357.748868,118.832344 358.256868,118.324344 C358.764868,116.800344 358.764868,114.261344 356.732868,115.277344 L356.732868,115.277344 Z M304.424868,113.753344 C304.424868,125.941344 314.073868,135.590344 325.754868,135.590344 C334.387868,135.590344 342.005868,130.512344 345.560868,123.402344 C334.895868,123.910344 325.246868,124.926344 316.105868,124.926344 C316.105868,123.402344 315.597868,122.387344 315.597868,120.863344 C316.613868,120.863344 317.120868,120.863344 318.136868,120.355344 C317.628868,111.722344 317.628868,102.581344 316.613868,94.455544 C314.581868,94.455544 314.581868,96.486844 313.566868,97.502544 C312.550868,97.502544 311.534868,98.010444 310.518868,98.518244 C306.964868,102.581344 304.424868,107.659344 304.424868,113.753344 L304.424868,113.753344 Z" id="Shape" fill="#E6E6E6" fill-rule="nonzero"></path>
            <path d="M326.261868,110.709344 C324.230868,110.709344 322.706868,112.232344 322.706868,114.264344 C322.706868,116.295344 324.230868,117.818344 326.261868,117.818344 C328.292868,117.818344 329.816868,116.295344 329.816868,114.264344 C329.308868,112.232344 327.785868,110.709344 326.261868,110.709344 Z M325.753868,115.787344 C324.738868,115.787344 324.230868,115.279344 324.230868,114.264344 C324.230868,113.248344 324.738868,112.740344 325.753868,112.740344 C326.769868,112.740344 327.277868,113.248344 327.277868,114.264344 C327.277868,114.771344 326.769868,115.787344 325.753868,115.787344 Z" id="Shape" fill="#E6E6E6" fill-rule="nonzero"></path>
            <path d="M352.161868,44.180244 C351.654868,44.180244 351.654868,45.195944 351.146868,45.703744 C350.638868,46.211644 350.638868,46.719444 350.638868,46.719444 C350.130868,46.719444 350.130868,47.227344 350.130868,47.227344 L350.130868,48.243044 C350.130868,48.750844 350.638868,49.258644 351.146868,49.766544 C351.146868,50.274344 351.654868,50.782244 351.654868,50.782244 C351.654868,51.290044 351.146868,51.290044 351.146868,51.290044 L351.146868,51.797944 C351.146868,51.797944 350.638868,52.305744 350.638868,52.813544 L350.130868,52.813544 C350.130868,52.813544 349.622868,53.321444 349.622868,53.829244 C350.130868,53.829244 349.622868,54.337144 349.622868,54.337144 L349.114868,54.844944 L349.114868,55.860644 C349.114868,56.368444 348.607868,57.384144 347.591868,57.384144 C346.575868,57.384144 346.067868,57.384144 345.559868,56.876344 C345.052868,56.876344 345.052868,56.368444 344.544868,56.368444 C344.036868,56.368444 344.036868,56.368444 344.036868,57.384144 C344.036868,58.399844 344.544868,58.907744 344.036868,59.415544 C343.528868,59.415544 343.020868,60.431244 342.005868,59.415544 C340.481868,58.399844 339.973868,58.399844 338.957868,56.876344 C337.942868,55.352844 336.926868,54.337144 336.926868,53.829244 L336.926868,52.305744 L335.910868,51.290044 C335.403868,50.782244 335.403868,50.782244 335.403868,49.766544 C335.403868,49.258644 334.895868,47.735144 334.387868,46.719444 C333.879868,45.703744 333.371868,44.688144 333.371868,43.672444 C333.371868,42.148844 333.371868,41.641044 333.879868,40.625344 C334.387868,39.609644 334.895868,38.086144 335.403868,37.578344 C335.910868,36.562644 336.418868,35.546944 337.434868,35.546944 C338.450868,35.039144 338.957868,35.546944 339.465868,35.039044 C339.973868,35.039044 339.973868,34.531244 340.989868,34.531244 L345.052868,34.531244 C346.067868,34.531244 346.067868,35.039044 346.575868,35.039044 C347.083868,35.546944 347.591868,35.546944 348.606868,36.054744 C349.622868,36.054744 350.130868,36.562644 351.146868,37.578344 C351.654868,38.086144 352.161868,38.593944 352.161868,39.101844 C352.161868,39.609644 352.669868,39.609644 353.177868,40.117544 C353.685868,40.625344 354.193868,40.625344 354.193868,41.641044 C354.701868,42.148844 354.701868,42.148844 354.701868,43.164544 C354.701868,44.180244 355.208868,44.688144 354.701868,45.195944 C354.193868,45.703744 354.701868,46.211644 353.685868,45.703744 L352.669868,45.703744 C352.161868,44.688144 352.161868,44.180244 352.161868,44.180244" id="Path" fill="#E6E6E6" fill-rule="nonzero"></path>
            <path d="M238.911868,2.539214 C238.911868,2.539214 238.911868,2.031374 238.911868,2.539214 C239.927868,2.031374 240.434868,2.031374 240.434868,1.523524 C240.942868,1.523524 240.942868,1.523524 241.450868,1.015684 L242.974868,1.015684 C243.481868,1.015684 243.481868,0.507844 243.989868,0.507844 L245.005868,0.507844 C245.005868,0.507844 245.005868,0 246.021868,0 C246.528868,0 247.036868,0.507844 247.544868,0.507844 L249.068868,0.507844 L249.576868,1.015684 L250.591868,1.015684 C251.099868,1.015684 251.099868,1.523524 251.099868,1.523524 L251.607868,1.523524 C252.115868,2.031374 252.115868,2.031374 253.130868,2.539214 C254.146868,3.047054 254.654868,3.554904 255.670868,4.062744 C256.685868,4.570584 256.685868,5.078424 257.193868,5.586274 C257.701868,6.094114 258.209868,6.601954 258.209868,7.109804 C258.209868,7.617644 257.701868,8.125484 257.193868,8.633324 L257.193868,10.664744 C257.193868,11.172544 256.685868,12.188244 256.685868,13.203944 C256.685868,13.711744 256.177868,14.219644 256.685868,14.727444 C256.685868,15.743144 257.193868,16.250944 257.701868,16.758844 C257.701868,17.266644 257.701868,17.266644 257.193868,17.774544 C256.685868,18.282344 256.685868,18.790144 256.685868,18.790144 C256.685868,19.298044 257.193868,18.790144 257.193868,19.298044 C257.193868,19.805844 256.685868,19.805844 256.685868,20.313744 C256.177868,20.821544 256.177868,20.821544 256.685868,20.821544 C256.685868,20.821544 257.193868,20.821544 257.193868,21.329444 C257.193868,21.837244 256.685868,21.837244 256.685868,21.837244 L256.685868,22.852944 C256.685868,23.360744 257.193868,23.868644 256.685868,24.884344 C256.177868,25.392144 256.685868,25.392144 255.670868,25.392144 C254.654868,25.392144 254.654868,25.899944 254.146868,25.899944 C253.638868,25.899944 253.130868,26.407844 253.130868,26.407844 L253.130868,27.423544 C253.130868,27.423544 254.146868,28.439244 254.146868,28.947044 L254.146868,34.533344 C254.146868,34.533344 253.130868,32.501944 251.607868,31.994044 C250.083868,30.978444 249.576868,30.470544 249.576868,30.470544 L249.576868,29.962744 C249.576868,29.962744 249.068868,28.947044 248.560868,28.947044 L246.021868,28.947044 C245.513868,28.947044 243.481868,27.931344 242.974868,27.423544 C241.450868,25.899944 241.450868,25.899944 241.450868,24.884344 C241.450868,23.868644 241.958868,22.852944 240.942868,21.837244 C239.927868,20.821544 237.387868,18.282344 236.372868,16.758844 C235.356868,15.235244 234.340868,13.711744 234.848868,11.172544 C234.848868,8.633324 234.848868,7.109804 235.356868,6.094114 C236.879868,5.078424 237.895868,3.554904 238.911868,2.539214" id="Path" fill="#E6E6E6" fill-rule="nonzero"></path>
            <path d="M292.236868,68.047244 C291.728868,67.539444 291.728868,67.539444 291.728868,67.031544 L291.728868,65.508044 C291.728868,65.000144 290.205868,64.492344 289.189868,63.984544 C288.174868,63.476644 287.158868,62.968844 285.126868,62.460944 C283.095868,61.953144 283.603868,61.445244 283.603868,61.445244 C283.603868,61.445244 282.587868,59.413944 281.064868,58.906044 C279.540868,58.398244 279.032868,57.890344 278.017868,57.382544 C277.001868,56.874744 277.001868,56.366844 275.478868,55.351144 C273.954868,54.335444 273.446868,53.319844 271.923868,52.304144 C270.399868,51.288444 269.383868,49.764944 268.368868,47.733544 C267.352868,45.702144 265.828868,43.670744 262.781868,38.592344 C259.734868,33.513944 258.719868,32.498244 257.703868,31.482544 C256.687868,30.466844 255.164868,29.959044 255.164868,29.959044 L255.164868,32.498244 L253.640868,31.482544 L253.640868,34.529644 C253.132868,34.529644 253.132868,34.529644 253.132868,35.037444 C253.132868,35.545344 253.640868,37.068844 254.148868,39.608044 C254.656868,42.147244 254.148868,45.702144 254.148868,45.702144 L251.609868,45.702144 L251.609868,42.147244 C251.609868,39.608044 250.593868,37.576644 249.578868,36.561044 C249.070868,35.545344 248.562868,35.545344 247.546868,34.529644 C246.530868,34.021744 246.530868,34.529644 246.530868,34.529644 C246.530868,34.529644 246.530868,33.006044 246.023868,32.498244 C245.515868,31.990444 245.515868,32.498244 245.007868,33.006144 C244.499868,33.513944 243.483868,35.037444 243.483868,35.037444 C243.483868,35.037444 242.976868,34.529644 242.468868,33.513944 C241.960868,32.498244 241.452868,31.990444 240.944868,31.482544 C240.436868,30.974744 238.405868,30.466844 236.881868,29.451244 C235.358868,28.943344 235.358868,28.943344 234.850868,29.451244 C234.342868,29.451244 232.819868,30.974744 230.787868,31.990444 C231.295868,31.990444 229.264868,34.021744 228.756868,37.068844 C227.740868,40.115844 227.232868,41.131544 226.725868,43.162944 C225.709868,44.686444 224.185868,46.210044 222.662868,48.749244 C221.138868,50.780544 219.107868,54.843344 218.091868,56.366844 L216.060868,62.460944 C215.552868,64.492344 214.029868,65.508044 214.029868,67.031544 C214.029868,68.555044 214.536868,69.062944 214.536868,69.570744 C214.536868,70.078644 213.013868,70.586444 211.997868,71.602144 C210.981868,72.617844 210.474868,74.141344 209.966868,74.649244 C209.966868,75.664844 208.950868,75.664844 208.442868,75.664844 C207.934868,75.664844 208.442868,76.172744 207.427868,77.696244 C206.411868,78.711944 205.395868,78.711944 204.380868,78.711944 C202.856868,78.711944 200.317868,78.711944 196.762868,78.204144 C193.207868,78.204144 194.223868,77.696244 193.715868,77.188444 C193.207868,76.680544 192.191868,76.172744 191.683868,75.664844 C191.176868,75.664844 191.683868,74.649244 191.683868,74.141344 C191.683868,73.633544 191.683868,73.125644 190.668868,73.125644 C189.144868,73.125644 189.144868,72.617844 187.621868,71.602144 C186.097868,70.586444 186.097868,70.078644 184.574868,68.555044 C183.050868,67.031544 182.542868,66.523744 181.527868,66.015844 C181.019868,66.015844 178.987868,65.000144 178.987868,65.000144 C178.987868,65.000144 178.987868,66.015844 178.480868,67.031544 C177.972868,67.539444 177.464868,67.539444 175.432868,68.047244 C173.401868,68.047244 172.385868,67.031544 171.878868,67.031544 C171.370868,67.031544 171.878868,66.523744 171.878868,66.523744 C171.878868,66.523744 173.909868,67.031544 175.432868,66.523744 C177.464868,66.523744 177.972868,65.508044 177.972868,65.000144 L177.972868,63.476644 C177.972868,62.968844 178.480868,62.968844 179.495868,62.968844 C180.003868,62.968844 181.527868,62.460944 182.034868,62.460944 C183.050868,61.953144 183.050868,60.937444 182.542868,60.429644 L182.542868,59.413944 C182.542868,58.906044 182.542868,58.398244 182.034868,58.398244 C181.527868,58.398244 181.527868,57.890344 182.034868,57.382544 C182.542868,57.382544 182.542868,57.382544 182.542868,56.874744 C182.542868,56.366844 182.542868,55.859044 182.034868,55.859044 L182.034868,54.843344 C182.034868,54.843344 182.542868,54.843344 182.034868,53.827644 C182.034868,52.811944 181.019868,53.319844 180.003868,52.811944 C179.495868,52.304144 180.003868,50.780544 180.003868,50.272744 C180.003868,49.764944 180.003868,49.764944 179.495868,48.749244 C178.987868,47.733544 180.003868,48.241344 180.003868,48.241344 C180.003868,48.241344 180.511868,48.749244 180.511868,49.257044 C181.019868,49.764944 181.019868,48.241344 181.527868,48.241344 C182.034868,47.733544 182.034868,47.733544 182.034868,47.225744 C182.034868,46.717844 181.527868,46.210044 180.511868,45.194344 C179.495868,44.178644 178.987868,44.178644 177.972868,43.670744 C176.956868,43.162944 176.448868,42.655144 174.417868,42.655144 C172.385868,42.147244 171.878868,42.655144 169.338868,42.655144 C166.799868,42.655144 164.768868,44.178644 162.736868,46.210044 C160.705868,48.241344 159.689868,52.304144 160.197868,53.827644 C160.197868,55.351144 160.197868,58.398244 159.689868,60.429644 C159.182868,62.968844 160.197868,63.984544 160.705868,64.492344 C161.213868,65.000144 162.229868,63.984544 163.244868,63.984544 C164.260868,63.984544 165.276868,65.000144 166.291868,65.508044 C167.307868,65.508044 166.799868,66.015844 166.291868,66.015844 C165.783868,66.015844 164.768868,66.015844 163.752868,66.523744 C162.736868,67.031544 162.229868,67.539444 160.197868,70.078644 C158.166868,72.617844 156.642868,74.141344 155.627868,74.649244 C154.611868,75.157044 154.611868,75.157044 154.611868,76.172744 C154.611868,76.680544 155.119868,76.680544 155.119868,77.696244 C155.119868,78.204144 154.103868,78.711944 153.595868,79.219744 C153.087868,79.727644 151.564868,80.235444 149.025868,82.774644 C146.485868,84.806044 145.470868,85.821744 144.454868,86.837444 C143.438868,87.853144 142.423868,87.853144 141.407868,88.868844 L138.360868,91.915844 C137.344868,92.423744 137.344868,92.423744 137.344868,93.439344 C137.344868,93.947244 137.852868,93.439344 137.852868,93.947244 C137.852868,94.455044 136.836868,94.962944 136.836868,94.962944 C136.329868,93.439344 135.313868,92.423744 134.297868,91.915844 C133.282868,91.408044 130.742868,90.900144 130.742868,90.900144 L129.727868,88.868844 C128.711868,87.853144 128.203868,87.853144 126.680868,88.360944 C125.156868,88.868844 124.648868,90.900144 124.140868,91.915844 C124.140868,92.931544 125.156868,94.962944 125.156868,94.962944 C125.156868,94.962944 124.648868,95.470744 124.140868,96.994244 C124.648868,99.025644 124.648868,100.549344 124.648868,100.549344 C122.617868,100.549344 121.601868,102.072344 121.601868,103.088344 C121.601868,103.596344 121.093868,107.151344 123.633868,107.659344 C126.680868,108.674344 127.187868,106.135344 127.187868,106.135344 C127.187868,106.135344 127.187868,106.643344 129.727868,106.643344 C131.758868,107.151344 132.774868,106.643344 132.774868,106.643344 C132.774868,107.659344 133.282868,108.674344 133.282868,108.674344 C131.250868,108.166344 130.234868,109.690344 129.727868,110.198344 C129.727868,110.706344 128.711868,114.768344 133.282868,115.276344 C137.852868,115.784344 138.360868,112.229344 138.360868,112.229344 L139.376868,112.229344 C139.883868,112.229344 140.899868,112.737344 140.899868,112.737344 C140.899868,113.753344 141.915868,115.276344 141.915868,115.276344 C140.391868,115.784344 140.391868,115.784344 139.883868,117.308344 C139.376868,118.323344 140.391868,119.847344 141.915868,120.863344 C143.438868,121.878344 145.470868,121.878344 146.993868,120.355344 C149.025868,118.831344 148.517868,117.308344 148.517868,115.276344 C148.517868,113.245344 147.501868,112.229344 147.501868,111.721344 C146.993868,111.214344 148.009868,110.198344 148.517868,110.198344 C149.025868,110.198344 149.532868,110.706344 149.532868,111.721344 C149.532868,112.737344 149.532868,113.245344 150.040868,114.768344 C150.548868,115.784344 151.564868,116.292344 153.087868,115.784344 C154.611868,115.784344 155.627868,115.276344 156.642868,112.737344 C157.658868,110.198344 156.642868,108.166344 155.627868,106.135344 C154.611868,104.104344 152.072868,103.596344 151.564868,103.088344 C151.056868,102.580344 151.056868,102.072344 150.548868,100.549344 C150.040868,99.533344 149.025868,98.517844 147.501868,98.009944 C145.978868,97.502144 146.485868,98.009944 146.485868,97.502144 L146.485868,95.470744 C147.501868,95.470744 147.501868,95.470744 147.501868,94.962944 C147.501868,94.455044 147.501868,94.455044 146.993868,93.439344 C146.993868,92.931544 146.993868,91.915844 148.009868,90.900144 C149.025868,89.884444 149.532868,89.884444 150.040868,89.884444 C150.548868,89.884444 150.548868,89.376644 152.072868,88.868844 C153.595868,88.360944 155.119868,87.345244 157.150868,86.329544 C158.674868,85.313944 159.689868,83.790344 160.197868,83.790344 C160.705868,83.790344 160.705868,84.298244 161.213868,84.298244 C161.721868,84.806044 161.213868,84.806044 161.721868,85.821744 C162.229868,86.329544 162.736868,85.821744 163.244868,85.313944 C163.752868,84.806044 164.768868,84.806044 165.276868,84.806044 C165.783868,84.806044 165.783868,85.821744 165.783868,86.837444 C165.783868,88.360944 165.783868,88.360944 166.799868,88.868844 C167.815868,89.884444 167.307868,89.376644 166.799868,89.884444 C166.799868,90.392344 165.783868,90.392344 165.276868,90.392344 L163.244868,92.423744 C162.229868,93.439344 161.721868,94.455044 160.197868,96.486444 C159.182868,98.517844 158.166868,99.533344 156.642868,101.057344 C155.119868,102.580344 154.611868,103.596344 154.611868,103.596344 L157.150868,103.596344 C158.166868,103.596344 159.182868,105.119344 160.197868,106.643344 C161.721868,108.166344 161.213868,108.674344 160.705868,109.690344 C160.197868,110.706344 159.689868,111.214344 158.166868,111.721344 C156.642868,112.229344 155.627868,113.753344 154.103868,115.276344 C152.580868,116.800344 151.056868,119.847344 150.548868,120.355344 C150.040868,120.863344 150.040868,120.863344 149.532868,120.863344 C149.025868,120.863344 149.532868,121.370344 148.517868,121.878344 C148.517868,121.878344 148.009868,121.878344 147.501868,122.386344 C147.501868,122.386344 147.501868,122.894344 146.993868,122.894344 C145.470868,123.910344 145.978868,123.402344 144.962868,123.910344 C143.438868,123.910344 141.915868,124.417344 140.899868,124.417344 C139.883868,124.925344 140.391868,125.941344 140.391868,126.957344 C140.391868,127.972344 140.899868,130.512344 140.899868,131.527344 L140.899868,138.129344 C140.899868,140.161344 141.915868,140.161344 142.931868,140.161344 C143.946868,140.161344 144.454868,138.637344 144.454868,137.621344 C144.454868,136.606344 144.962868,136.098344 145.978868,134.574344 C146.993868,133.051344 148.517868,131.527344 149.025868,131.019344 C149.532868,130.512344 150.040868,130.004344 150.548868,130.004344 C151.056868,130.004344 151.564868,129.496344 152.072868,128.988344 C152.580868,128.480344 152.580868,128.988344 153.595868,127.972344 C154.611868,127.465344 154.103868,125.941344 154.611868,124.925344 L156.642868,122.894344 C157.658868,121.878344 160.705868,119.847344 162.736868,118.323344 C167.307868,115.276344 167.815868,114.261344 167.815868,114.261344 C167.815868,114.261344 169.338868,114.261344 172.385868,114.768344 C175.432868,115.276344 173.909868,114.768344 176.956868,114.261344 C180.003868,113.753344 178.480868,114.261344 178.480868,114.768344 C178.987868,115.276344 178.987868,115.784344 179.495868,116.800344 C180.003868,117.815344 179.495868,119.339344 178.987868,122.386344 C178.987868,125.433344 179.495868,127.465344 180.511868,129.496344 C181.019868,131.527344 180.511868,131.019344 180.511868,131.019344 C180.511868,131.527344 179.495868,131.527344 179.495868,132.543344 C179.495868,133.559344 180.003868,133.051344 180.003868,133.559344 C180.511868,134.066344 180.003868,133.559344 180.511868,134.574344 L180.511868,137.114344 C181.019868,137.621344 180.511868,137.114344 180.511868,139.653344 C180.511868,142.192344 181.527868,143.208344 182.542868,143.715344 C183.558868,144.223344 184.574868,143.715344 186.097868,143.208344 C187.621868,142.700344 188.129868,142.192344 191.176868,142.192344 C194.223868,141.684344 193.715868,141.684344 195.746868,140.668344 C197.778868,139.653344 197.270868,139.145344 197.270868,139.145344 L196.762868,138.129344 C196.762868,138.637344 195.746868,139.145344 194.730868,138.637344 C193.715868,138.637344 194.223868,138.637344 192.191868,138.129344 C190.668868,138.129344 191.176868,137.621344 190.160868,136.606344 C189.652868,136.098344 188.636868,135.590344 188.636868,135.082344 L188.636868,133.559344 L187.621868,132.543344 L187.621868,131.019344 C187.621868,130.512344 187.113868,130.512344 187.113868,130.512344 C186.605868,130.004344 186.605868,129.496344 186.097868,128.988344 L186.097868,124.925344 C186.097868,123.910344 186.097868,122.386344 186.605868,120.863344 C186.605868,119.339344 187.113868,115.784344 186.605868,114.261344 C186.605868,113.245344 185.589868,111.721344 186.097868,111.721344 C186.605868,111.721344 186.605868,111.721344 187.621868,110.706344 C188.636868,110.198344 189.144868,109.182344 189.652868,108.166344 C190.160868,107.659344 190.668868,106.643344 191.176868,106.643344 C191.683868,106.135344 192.191868,106.135344 191.176868,105.627344 C190.160868,105.119344 189.652868,104.612344 188.636868,103.596344 C187.621868,102.580344 187.621868,102.072344 186.097868,101.057344 C185.081868,99.533344 185.589868,99.533344 185.081868,98.517844 C184.574868,96.994244 184.574868,96.994244 184.066868,94.962944 C183.558868,92.931544 182.542868,90.392344 181.527868,89.376644 C181.019868,88.360944 181.527868,88.360944 182.034868,87.853144 C182.542868,87.345244 182.542868,86.837444 183.050868,86.329544 C183.050868,85.821744 183.050868,84.806044 182.542868,83.790344 L182.542868,80.743344 C182.542868,79.727644 183.050868,80.235444 184.066868,80.235444 C184.574868,80.235444 184.574868,80.743344 185.589868,81.759044 C186.605868,82.774644 186.605868,81.759044 187.113868,81.251144 C187.621868,80.743344 188.129868,80.743344 188.129868,80.743344 C188.636868,80.743344 188.636868,81.251144 190.668868,82.266844 C192.699868,83.282544 193.715868,83.282544 197.270868,83.282544 C201.332868,83.282544 202.856868,82.266844 204.887868,82.266844 C206.919868,81.759044 207.427868,81.251144 208.442868,81.251144 C209.458868,81.251144 211.489868,81.251144 212.505868,80.743344 C213.521868,80.235444 213.013868,79.727644 213.521868,79.727644 C214.029868,79.727644 213.521868,80.235444 214.029868,80.235444 C214.536868,80.235444 214.536868,79.727644 214.536868,79.219744 C214.536868,78.711944 215.044868,78.204144 215.552868,77.188444 C216.060868,75.664844 216.568868,75.157044 216.568868,73.125644 C216.568868,71.094344 217.076868,71.602144 217.076868,71.094344 C217.583868,70.586444 217.583868,71.094344 219.107868,70.586444 C220.123868,70.078644 220.630868,68.555044 221.138868,67.539444 C221.646868,66.523744 223.170868,65.000144 224.185868,63.476644 C225.201868,61.445244 225.709868,60.937444 226.217868,59.921744 C226.725868,58.906044 226.725868,58.398244 227.232868,57.382544 L230.279868,54.335444 C231.803868,52.811944 231.803868,52.811944 232.311868,53.319844 C232.311868,53.827644 232.819868,54.843344 232.819868,55.859044 L232.819868,61.953144 C232.819868,63.984544 233.834868,64.492344 234.342868,65.000144 C234.850868,65.508044 234.342868,66.523744 234.342868,67.539444 C233.834868,68.555044 233.327868,71.094344 232.819868,74.649244 C232.311868,78.204144 232.819868,80.743344 232.819868,80.743344 C231.295868,82.774644 230.787868,85.821744 229.264868,89.884444 C227.740868,93.947244 227.232868,100.041344 226.725868,100.549344 C226.725868,101.057344 225.709868,101.565344 224.693868,102.580344 C223.678868,103.596344 223.678868,104.612344 222.662868,105.627344 C221.646868,107.151344 219.107868,109.690344 218.599868,111.214344 C217.583868,113.245344 217.076868,114.261344 216.060868,117.815344 C215.044868,121.370344 213.013868,124.417344 212.505868,125.941344 C211.489868,127.465344 211.997868,127.972344 212.505868,128.480344 C213.013868,128.988344 212.505868,128.988344 211.997868,129.496344 C211.489868,130.004344 210.981868,131.019344 210.474868,132.543344 C209.966868,134.066344 209.966868,134.574344 210.474868,135.082344 C210.981868,136.098344 211.997868,136.606344 214.029868,137.114344 C216.060868,137.621344 215.552868,137.621344 216.060868,138.129344 C216.568868,138.637344 217.583868,139.653344 219.615868,141.176344 C221.646868,142.700344 223.170868,143.208344 225.201868,143.715344 C227.232868,144.223344 227.740868,143.715344 227.740868,142.700344 C228.248868,141.684344 227.232868,140.668344 226.725868,139.653344 C226.217868,138.637344 225.201868,137.621344 225.201868,137.114344 C224.693868,136.606344 224.693868,136.098344 223.170868,134.066344 C222.662868,133.559344 223.170868,133.559344 223.170868,133.559344 L224.693868,133.559344 C225.709868,133.559344 225.201868,132.543344 225.201868,131.527344 C225.201868,130.512344 225.709868,129.496344 226.217868,128.480344 C226.725868,127.465344 227.740868,126.449344 228.756868,124.925344 C229.772868,123.402344 230.280868,121.878344 230.787868,120.355344 C231.295868,118.831344 231.295868,119.339344 232.311868,117.815344 C233.327868,116.292344 234.850868,114.768344 236.881868,112.229344 C238.913868,109.690344 238.913868,109.182344 239.421868,107.151344 C239.928868,105.119344 242.468868,101.565344 243.483868,99.533344 C244.499868,97.502144 247.038868,94.455044 247.546868,93.439344 C248.562868,91.915844 248.562868,92.423744 249.070868,93.439344 C249.578868,93.947244 253.132868,98.009944 255.672868,100.041344 C258.211868,102.072344 260.750868,104.612344 261.258868,106.135344 C261.766868,107.659344 261.258868,109.690344 261.258868,114.768344 C261.258868,119.847344 262.274868,122.386344 262.781868,125.433344 C263.289868,128.480344 264.813868,133.559344 265.321868,136.098344 C265.828868,138.637344 265.828868,137.114344 266.844868,137.621344 C267.860868,138.129344 268.368868,138.129344 268.876868,138.637344 C269.383868,139.145344 268.876868,139.145344 268.368868,140.161344 C268.368868,141.176344 268.368868,141.176344 268.876868,142.700344 C269.383868,144.223344 269.891868,144.731344 270.399868,145.239344 C270.907868,145.747344 271.923868,145.239344 273.954868,145.239344 C275.985868,144.731344 277.001868,144.223344 279.032868,144.223344 C280.556868,143.715344 281.572868,144.223344 284.111868,144.223344 C286.650868,144.223344 286.650868,143.715344 288.174868,142.700344 C289.697868,142.192344 289.697868,141.684344 289.189868,140.668344 C289.189868,140.161344 288.174868,139.653344 287.666868,139.653344 C287.158868,139.653344 286.142868,139.653344 285.634868,139.145344 C284.619868,138.637344 284.619868,139.145344 283.603868,138.637344 C282.587868,138.129344 282.079868,137.621344 280.048868,137.114344 C278.017868,136.098344 278.017868,136.606344 278.017868,136.098344 C278.017868,135.590344 279.032868,135.082344 279.540868,134.066344 C280.048868,133.051344 279.540868,133.051344 279.032868,132.035344 C278.525868,131.019344 277.509868,128.988344 277.001868,126.957344 C276.493868,124.925344 274.970868,119.339344 274.462868,117.308344 C273.954868,115.276344 274.462868,113.245344 273.954868,108.166344 C273.954868,103.088344 272.938868,101.565344 272.430868,99.533344 C271.415868,97.502144 270.399868,95.470744 268.876868,92.931544 C267.352868,90.392344 265.828868,88.360944 263.797868,85.313944 C261.766868,82.266844 260.242868,78.711944 259.734868,76.680544 C259.227868,74.649244 259.227868,74.649244 259.227868,73.125644 C258.719868,71.602144 258.719868,70.586444 257.703868,69.570744 C257.195868,68.555044 257.703868,68.555044 257.703868,68.047244 C258.211868,67.031544 259.227868,67.539444 259.227868,66.523744 C259.734868,65.508044 258.719868,64.492344 259.227868,63.984544 C259.734868,63.476644 259.734868,63.476644 260.242868,62.460944 C260.242868,61.445244 259.734868,60.937444 259.734868,60.429644 C259.227868,59.921744 259.734868,58.906044 259.734868,57.382544 L260.242868,55.859044 C260.242868,55.859044 261.258868,56.366844 262.781868,58.398244 C264.813868,61.445244 266.844868,62.968844 269.891868,64.492344 C272.938868,66.523744 275.985868,67.539444 279.032868,67.539444 C282.079868,67.539444 281.572868,67.539444 282.587868,67.031544 C283.603868,67.031544 283.603868,67.031544 284.111868,68.047244 L285.634868,69.570744 C286.650868,70.078644 286.650868,70.586444 287.158868,71.094344 C287.666868,71.602144 287.666868,71.094344 288.174868,71.094344 C288.681868,70.586444 288.174868,70.078644 287.666868,69.570744 C287.158868,69.062944 288.174868,69.570744 288.681868,69.570744 C289.189868,69.570744 289.189868,70.078644 289.189868,70.586444 C289.189868,71.094344 289.189868,71.094344 289.697868,71.602144 C290.205868,72.109944 290.713868,71.602144 291.221868,71.602144 C291.728868,71.602144 291.728868,72.109944 292.236868,72.617844 C292.744868,72.617844 292.744868,72.109944 292.744868,71.094344 C293.252868,68.555044 292.744868,68.555044 292.236868,68.047244 M125.156868,104.612344 C124.648868,104.612344 124.140868,105.119344 123.633868,104.612344 C122.617868,103.596344 123.633868,102.580344 124.140868,102.072344 C124.648868,102.580344 125.156868,103.596344 125.156868,104.612344 Z M127.187868,93.439344 C126.680868,92.423744 126.680868,91.408044 127.695868,90.900144 C128.203868,90.900144 128.711868,91.408044 129.219868,91.408044 C129.727868,92.931544 127.695868,92.423744 127.187868,93.439344 L127.187868,93.439344 Z M128.203868,101.565344 C127.187868,100.549344 129.219868,98.517844 129.727868,100.549344 C129.727868,101.565344 128.711868,102.072344 128.203868,101.565344 Z M131.758868,99.533344 C131.250868,100.041344 131.250868,100.041344 131.250868,99.533344 L131.250868,99.025644 L131.758868,99.025644 L131.758868,99.533344 Z M130.742868,96.486444 C129.727868,95.470744 131.250868,93.947244 132.266868,95.470744 C132.266868,95.978644 131.250868,96.994244 130.742868,96.486444 Z M132.774868,112.737344 C132.266868,112.737344 131.250868,112.737344 130.742868,112.229344 C130.234868,110.706344 131.758868,110.198344 132.774868,110.198344 C133.282868,110.198344 133.789868,110.706344 134.297868,111.214344 C134.805868,112.229344 133.789868,113.245344 132.774868,112.737344 Z M154.103868,110.706344 C154.103868,111.721344 153.595868,113.245344 152.580868,113.753344 C152.072868,113.245344 151.564868,113.245344 151.564868,112.229344 C151.056868,110.198344 153.087868,109.690344 154.103868,110.706344 Z M141.407868,118.831344 C140.391868,118.323344 140.391868,116.800344 141.407868,116.292344 C142.423868,116.292344 143.438868,116.292344 143.946868,117.308344 C144.962868,119.339344 142.931868,119.339344 141.407868,118.831344 Z" id="Shape" fill="#E6E6E6" fill-rule="nonzero"></path>
            <path d="M1.24316756,153.367344 L500.960868,153.367344 L1.24316756,153.367344 Z" id="Path" fill="#E6E6E6" fill-rule="nonzero"></path>
            <line x1="1.24316756" y1="153.367344" x2="500.960868" y2="153.367344" id="Path" stroke="#E6E6E6" stroke-width="0.75"></line>
        </g>
    </g>
</svg>